<svg id="Layer_1" data-name="Layer 1" xmlns="http://www.w3.org/2000/svg" viewBox="0 0 92.53 73.27"><defs><style>.cls-1{fill:none;stroke:#000;stroke-miterlimit:10;stroke-width:0.1px;}</style></defs><path class="cls-1" d="M4.69,70.78l21.68-3a1.87,1.87,0,0,0,1.55-2.36L17.14,26.78a1.83,1.83,0,0,1,1.72-2.33l43-.94a2.57,2.57,0,0,0,1.18-.32l16-8.89a1.4,1.4,0,0,1,2,.76l5,14.06a1.64,1.64,0,0,1-.82,2L83.56,32a1.32,1.32,0,0,0-.66,1.64L95.61,69a2.48,2.48,0,0,1-1.7,3.21l-60.22,15A3.3,3.3,0,0,1,31.4,87L4.22,73.78A1.59,1.59,0,0,1,4.69,70.78Z" transform="translate(-3.27 -14.08)"/></svg>