<?xml version="1.0" encoding="utf-8"?>
<!-- Generator: Adobe Illustrator 25.0.0, SVG Export Plug-In . SVG Version: 6.00 Build 0)  -->
<svg version="1.1" id="Layer_1" xmlns="http://www.w3.org/2000/svg" xmlns:xlink="http://www.w3.org/1999/xlink" x="0px" y="0px"
	 viewBox="0 0 100 100" style="enable-background:new 0 0 100 100;" xml:space="preserve">
<style type="text/css">
	.st0{stroke:#000000;stroke-width:0.1;stroke-miterlimit:10;}
</style>
<g id="_x37_58ky4_1_">
	<g>
		<path class="st0" d="M75.8,48.4c3,7.2,3.3,14.5,0.5,21.7C74.2,75.5,70.8,79.8,66,83c-10,6.7-22.5,6.5-32.1-0.4
			c-5.4-3.9-9-9-10.7-15.4c-1.7-6.3-1.2-12.5,1.3-18.5c-1.9,0-3.8,0.2-5.7,0.1c-8.6-0.7-14.6-8.4-13.1-16.9
			c1.6-9.5,9.2-16.8,18.8-18.1c6.3-0.8,12.3,2,15.3,7.4c1.9,3.5,2.2,7.2,1.3,11.1c-0.1,0.3-0.2,0.7-0.3,1.1c6.4-2.1,12.6-2.1,19,0.1
			c-0.2-0.9-0.4-1.7-0.5-2.5c-1.1-6.4,1.5-12.4,7-15.5c3.9-2.2,8.2-2.5,12.5-1.4c8.4,2.2,14.9,9.3,16.2,17.8
			c1.4,9.6-6.2,17.7-15.8,16.9C77.9,48.6,76.9,48.5,75.8,48.4z"/>
	</g>
</g>
</svg>
