<?xml version="1.0" encoding="utf-8"?>
<!-- Generator: Adobe Illustrator 25.0.0, SVG Export Plug-In . SVG Version: 6.00 Build 0)  -->
<svg version="1.1" id="Layer_1" xmlns="http://www.w3.org/2000/svg" xmlns:xlink="http://www.w3.org/1999/xlink" x="0px" y="0px"
	 viewBox="0 0 90.6 63.7" style="enable-background:new 0 0 90.6 63.7;" xml:space="preserve">
<style type="text/css">
	.st0{stroke:#000000;stroke-width:0.1;stroke-miterlimit:10;}
</style>
<path class="st0" d="M53.1,56.2c-0.3,1.8-0.8,3.5-1.3,5.2c-0.4,1.1-0.9,2.6-2.6,2.3c-5.5-0.9-11-1.7-16.4-3
	c-3.5-0.8-4.1-2.3-3.3-5.8c0.5-2,1.1-3.9,1.7-6.2l-30.9-7C-1.6,24.5,6.2,7.9,20.2,0.1c0.2,0.1,0.4,0.3,0.6,0.4l63.7,49.4
	c1,0.8,1.7,1.6,3.2,0.8s2.9,0,2.7,1.8c-0.3,3.6-1.8,7-4.3,9.6c-1.3,1.4-2.6,1.1-3.2-0.6c-0.3-1.2-1.4-2-2.6-2c-1-0.1-2-0.4-2.9-0.6
	l-23.7-5.2C53.6,54.5,53.4,55.3,53.1,56.2z M35.9,49.6c-0.2,0.8-0.4,1.4-0.6,2.1c-1.2,4.1-0.9,4.7,3.3,5.6c2.3,0.5,4.7,0.8,7,1.3
	c0.9,0.3,2-0.2,2.3-1.1c0.1-0.2,0.1-0.4,0.1-0.6c0.2-1.4,0.5-2.7,0.8-4.4L35.9,49.6z"/>
</svg>
