<?xml version="1.0" encoding="utf-8"?>
<!-- Generator: Adobe Illustrator 24.0.3, SVG Export Plug-In . SVG Version: 6.00 Build 0)  -->
<svg version="1.1" id="Layer_1" xmlns="http://www.w3.org/2000/svg" xmlns:xlink="http://www.w3.org/1999/xlink" x="0px" y="0px"
	 viewBox="0 0 100 100" style="enable-background:new 0 0 100 100;" xml:space="preserve">
<style type="text/css">
	.st0{fill:none;stroke:#000500;stroke-width:0.1;stroke-miterlimit:10;}
</style>
<polygon class="st0" points="50.83,5.04 39.48,5.04 38.81,25.48 45.27,25.48 44.12,34.05 35.75,27.97 32.55,28.81 33.09,32.05 
	38.06,38.32 36.61,40.4 42.69,46.04 42.86,54.42 37.04,54.84 30.44,49.12 30.44,54.84 26.24,60.01 29.32,61.16 27.35,64.72 
	28.72,66.18 40.81,63.18 37.38,78.52 37.12,87.09 32.49,88.89 32.67,96 44.51,95.21 45.08,81.43 47.92,81.43 47.4,95.21 
	58.63,95.21 57.09,89.74 54.78,88.46 56.15,78.69 55.29,77.15 56.23,61.16 61.29,61.16 62.23,63.86 62.75,69.35 67.54,69.18 
	68.32,64.72 70.72,65.66 72.26,64.12 70.37,58.72 75,55.46 71.74,51.18 66.43,51.18 62.4,53.32 54.08,53.07 54.6,45.44 58.55,43.12 
	58.55,40.4 60.43,40.4 65.74,30.53 63.35,29.24 55.38,34.05 55.72,28.81 62.23,27.1 62.15,13.82 51.45,14.5 55.8,5.04 "/>
</svg>
