<?xml version="1.0" encoding="utf-8"?>
<!-- Generator: Adobe Illustrator 22.1.0, SVG Export Plug-In . SVG Version: 6.00 Build 0)  -->
<svg version="1.1" id="Layer_1" xmlns="http://www.w3.org/2000/svg" xmlns:xlink="http://www.w3.org/1999/xlink" x="0px" y="0px"
	 viewBox="0 0 100 100" style="enable-background:new 0 0 100 100;" xml:space="preserve">
<style type="text/css">
	.st0{fill:#FFFFFF;stroke:#000000;stroke-width:0.1;stroke-miterlimit:10;}
</style>
<path class="st0" d="M10,74.8c5,6.2,22.8-8.3,27.2-13S19.6,93,38.2,93c18.7,0,13.5-30.5,13.5-28.1c0,2.4,11.8,28.1,26,23.9
	c32.4-9.6-12.9-33.2-13.5-33.3c0,0,30.5,12.1,32.7,2.6c2.2-9.5-33.7-14-33.7-14S97,34.3,96.9,24.8c-0.1-11.7-7.7-16.2-15-15
	c-15.4,2.6-31.2,27-31.2,27c4-4.7-15.6-35.4-27.7-28.7c-7.3,4,11,31.8,11,31.8S5.7,27.2,3.5,34.3C3.5,34.3-1,38,4,42s33,7,33,7
	S-7.9,52.6,10,74.8z"/>
</svg>
