<?xml version="1.0" encoding="utf-8"?>
<!-- Generator: Adobe Illustrator 25.0.0, SVG Export Plug-In . SVG Version: 6.00 Build 0)  -->
<svg version="1.1" id="Layer_1" xmlns="http://www.w3.org/2000/svg" xmlns:xlink="http://www.w3.org/1999/xlink" x="0px" y="0px"
	 viewBox="0 0 100 100" style="enable-background:new 0 0 100 100;" xml:space="preserve">
<style type="text/css">
	.st0{stroke:#000500;stroke-width:0.1;stroke-miterlimit:10;}
</style>
<polygon class="st0" points="50.8,5 39.5,5 38.8,25.5 45.3,25.5 44.1,34 35.8,28 32.5,28.8 33.1,32 38.1,38.3 36.6,40.4 42.7,46 
	42.9,54.4 37,54.8 30.4,49.1 30.4,54.8 26.2,60 29.3,61.2 27.4,64.7 28.7,66.2 40.8,63.2 37.4,78.5 37.1,87.1 32.5,88.9 32.7,96 
	44.5,95.2 45.1,81.4 47.9,81.4 47.4,95.2 58.6,95.2 57.1,89.7 54.8,88.5 56.2,78.7 55.3,77.2 56.2,61.2 61.3,61.2 62.2,63.9 
	62.8,69.3 67.5,69.2 68.3,64.7 70.7,65.7 72.3,64.1 70.4,58.7 75,55.5 71.7,51.2 66.4,51.2 62.4,53.3 54.1,53.1 54.6,45.4 
	58.5,43.1 58.5,40.4 60.4,40.4 65.7,30.5 63.3,29.2 55.4,34 55.7,28.8 62.2,27.1 62.2,13.8 51.5,14.5 55.8,5 "/>
</svg>
