<svg id="Layer_1" data-name="Layer 1" xmlns="http://www.w3.org/2000/svg" viewBox="0 0 66.25 68.1"><defs><style>.cls-1{fill:none;stroke:#000;stroke-miterlimit:10;stroke-width:0.1px;}</style></defs><path class="cls-1" d="M53.16,84H50.22c-1.44-.5-2.92-.93-4.32-1.52-2.13-.9-4.23-1.91-6.33-2.89C37.7,78.7,35.78,77.9,34,76.85A9,9,0,0,1,29.87,72a1.37,1.37,0,0,0-1.32-1,22.13,22.13,0,0,1-9.46-4.25,1.34,1.34,0,0,1-.53-1.61,4.5,4.5,0,0,0,.21-1.58,29.48,29.48,0,0,0-.52-3.1,9.37,9.37,0,0,1,.3-6.31,1.15,1.15,0,0,0-.07-.74A36.21,36.21,0,0,1,17.2,49a28.55,28.55,0,0,1,1.29-12.87,2.13,2.13,0,0,1,.54-.84,49,49,0,0,1,8.64-6.68,1.82,1.82,0,0,0,1.1-1.7c.07-1.75,1.13-3.13,2-4.59s1.42-2.72,2.2-4a1.7,1.7,0,0,1,1.11-.77,24.45,24.45,0,0,1,3.73,0,12,12,0,0,1,6.12,2.17c.81-.59,1.52-1.2,2.32-1.67a16.94,16.94,0,0,1,11-1.87,1.46,1.46,0,0,1,.93.71,19.59,19.59,0,0,0,7.64,7.81,13,13,0,0,1,4.14,3.68,17.13,17.13,0,0,0,1.89,2.82,20,20,0,0,0,3,1.64,15.31,15.31,0,0,1,7,8.37,2.64,2.64,0,0,1-.08,2c-.88,2-1.72,4-2.63,6a1,1,0,0,0,.22,1.31,12.85,12.85,0,0,1,3.73,7.7,2,2,0,0,1-1.18,2.21,5.29,5.29,0,0,0-1.24.89c-1.37,1.46-2.66,3-4.06,4.44a25.2,25.2,0,0,1-3,2.58,2.51,2.51,0,0,1-2.53.22,1.42,1.42,0,0,0-2,1.2A9.06,9.06,0,0,1,65,77.35c-2.35,1.63-4.75,3.19-7.12,4.78a2.76,2.76,0,0,1-.44.25Z" transform="translate(-16.87 -15.95)"/></svg>