<?xml version="1.0" encoding="utf-8"?>
<!-- Generator: Adobe Illustrator 25.0.0, SVG Export Plug-In . SVG Version: 6.00 Build 0)  -->
<svg version="1.1" id="Layer_1" xmlns="http://www.w3.org/2000/svg" xmlns:xlink="http://www.w3.org/1999/xlink" x="0px" y="0px"
	 viewBox="0 0 100 100" style="enable-background:new 0 0 100 100;" xml:space="preserve">
<style type="text/css">
	.st0{stroke:#000000;stroke-width:0.1;stroke-miterlimit:10;}
</style>
<path class="st0" d="M23.9,43.9c-1.6,2.6-3.3,5.2-4,8.2c3.9-0.1,6.9-3.5,9.1-6.7s4.3-6.9,7.9-8.5c-1.2,1.9-2.4,3.8-3.6,5.7
	c-1.8,2.8-3.5,5.5-4.6,8.6c-0.9,2.7-1.3,5.5-1.5,8.3c-0.3,3.6-0.4,7.2,0.7,10.6s3.4,6.6,6.7,7.9c1.8,0.7,3.9,0.8,5.8,0.9
	c4.5,0.2,9.2,0.7,13,2.9c2.8,1.7,5.1,4.2,7.8,5.9c2.8,1.7,6.7,2.5,9.2,0.4c4.6,5,11.6,7.6,18.3,6.7c-1.4-7.1-8.1-12.7-15.3-12.8
	c3.3-5.9,5.2-12.7,5.3-19.6c-5.2,4-9.6,9.1-12.7,14.9c-2.8-0.5-5.5-1.8-7.6-3.8c-2.5-2.4-4.1-5.7-6.5-8.2c-3.4-3.5-8.6-5.4-10.8-9.7
	s-0.8-9.5,1.3-13.7c1,4.3,2.7,8.4,4.8,12.2c1.7,3,4,6,7.4,6.6c0.3-4.2,0.7-8.6-0.7-12.6c-0.9-2.6-2.4-5-3.7-7.4
	c-2.4-4.6-3.8-9.8-4.1-15c3,0,6.5-0.2,8.5-2.5c1.9-2,1.9-5.1,1.5-7.9c-0.1-0.8-0.3-1.6-0.8-2.2c-0.7-0.9-1.8-1.4-2.8-1.8
	c-3.2-1.3-7.2-2.5-9.9-0.3c-1.6,1.3-2.3,3.4-2.8,5.4c-0.5,2.5-1,5.1-2.1,7.4c-1,2-2.7,3-4,4.6C30,32.9,27.1,38.9,23.9,43.9z"/>
</svg>
