<?xml version="1.0" encoding="utf-8"?>
<!-- Generator: Adobe Illustrator 25.0.0, SVG Export Plug-In . SVG Version: 6.00 Build 0)  -->
<svg version="1.1" id="Layer_1" xmlns="http://www.w3.org/2000/svg" xmlns:xlink="http://www.w3.org/1999/xlink" x="0px" y="0px"
	 viewBox="0 0 100 100" style="enable-background:new 0 0 100 100;" xml:space="preserve">
<style type="text/css">
	.st0{stroke:#000000;stroke-width:0.1;stroke-miterlimit:10;}
</style>
<path class="st0" d="M89.6,83c-0.7,0-1.5,0.1-2.2,0.1c-0.4,0-0.8,0.2-0.9,0.6c-0.2,0.5-0.7,0.8-1.2,0.8c-2.1,0.1-4.3,0-6.4,0.1
	c-3.5,0.2-7,0.2-10.5,0.3c-2.6,0.1-5.1,0.1-7.7,0.2s-4.8,0.1-7.2,0.4c-0.5,0-1.1,0-1.6,0c-3.4,0-6.8,0.3-10.3,0.4
	c-1.6,0.1-3.2,0.2-4.9,0.2c-3.4,0.1-6.9,0.3-10.3,0.4c-0.9,0-1.9,0.1-2.8,0.1c-2.1,0.1-4.1,0.1-6.2,0.2C16.8,87,16,87,15.3,87
	c-0.6,0-1.2-0.5-1.3-1.1c-0.3-1.2-0.4-2.4-0.4-3.6c0-0.2,0-0.3,0-0.5c0.1-1.4-0.1-2.8-0.1-4.2c0.2-4.8,0.1-9.6,0.1-14.4
	c0-0.8,0-1.7-0.1-2.5c0-0.7,0-1.4,0.1-2.2c0-2.1-0.1-4.2-0.1-6.3c0-1-0.2-2-0.2-3c0-0.8,0-1.5-0.1-2.3c-0.1-0.3,0.2-0.6,0.2-1
	c0.1-1.3,0.1-2.6,0-3.9c0-0.2,0-0.4,0-0.6c-0.1-4.8-0.1-9.7-0.1-14.5c0.1-1.6,0-3.2-0.1-4.8c-0.1-1.2-0.1-2.3,0.1-3.5
	c0.1-0.5-0.2-1.1,0-1.7c0.1-0.4,0.3-0.5,0.7-0.5c0.3,0.1,0.7-0.2,0.7-0.5l0,0c0.1-0.5,0.6-1,0.4-1.6c-0.1-0.2,0.3-0.6,0.7-0.6
	c0.7-0.1,1.4-0.1,2.1,0.1c0.6,0.2,1.2,0.2,1.9,0.2l7.3,0.6c2.5,0.2,5,0.5,7.5,0.6c2.2,0.1,4.3,0.4,6.5,0.6c2.5,0.2,4.9,0.5,7.4,0.6
	s5.1,0.5,7.6,0.7c3.2,0.3,6.5,0.6,9.7,0.9c1.8,0.1,3.7,0.3,5.5,0.4c2.2,0.1,4.4,0.3,6.6,0.5c1.4,0.1,2.8,0.2,4.2,0.4
	c0.5,0,0.8,0.4,0.8,0.9l0,0c0.3,2.6,0.7,5.3,1,8c0.2,1.8,0.3,3.5,0.6,5.3c0.1,0.9,0.2,1.8,0.3,2.7c0.2,2,0.5,4.1,0.7,6.1
	c0.2,1.5,0.3,3.1,0.5,4.6c0,0.8,0.2,1.5,0.4,2.3c0.1,0.9,0.2,1.8,0.2,2.7c0.3,2.4,0.6,4.8,0.8,7.3c0.2,1.9,0.4,3.8,0.7,5.7
	s0.5,3.8,0.8,5.7c0.4,3.2,0.8,6.3,1.1,9.5c0.1,0.7,0.2,1.5,0.3,2.2C90.3,82.8,90.1,82.9,89.6,83z"/>
</svg>
