<?xml version="1.0" encoding="utf-8"?>
<!-- Generator: Adobe Illustrator 21.1.0, SVG Export Plug-In . SVG Version: 6.00 Build 0)  -->
<svg version="1.1" id="Layer_1" xmlns="http://www.w3.org/2000/svg" xmlns:xlink="http://www.w3.org/1999/xlink" x="0px" y="0px"
	 viewBox="0 0 100 100" style="enable-background:new 0 0 100 100;" xml:space="preserve">
<style type="text/css">
	.st0{fill:none;stroke:#000000;stroke-width:0.1;stroke-miterlimit:10;}
</style>
<path class="st0" d="M75.7,46.4L74,38h-1.7l-1.7-11.8l9-9c0.6-0.6,0.6-1.7,0-2.3l-1.2-1.2c-0.6-0.6-1.5-0.6-2.1,0l-1.5,1.5
	c-0.5,0.5-1.3,0.6-1.9,0.3l-2.1-1.1c-0.1-0.1-0.2-0.1-0.3-0.1c-2-0.7-21.8-7.2-25.2-8.4c-1.7-0.6-3.7-0.3-4.6-0.1
	c-0.3,0.1-0.6,0.2-0.8,0.3L30,10.9c0,0,0,5.1,0,11.8s6.8,6.8,6.8,6.8v3.4l-1.7,1.7v7.1C24.4,46,17,57.1,18.4,69.7
	c1.3,12.4,11.3,22.5,23.7,23.9c6.3,0.7,12.1-0.7,17-3.6c1.3,2.9,6.5,5.5,6.5,5.5C82.5,83.6,74,48.1,74,48.1L75.7,46.4z"/>
</svg>
