<?xml version="1.0" encoding="utf-8"?>
<!-- Generator: Adobe Illustrator 25.0.0, SVG Export Plug-In . SVG Version: 6.00 Build 0)  -->
<svg version="1.1" id="Layer_1" xmlns="http://www.w3.org/2000/svg" xmlns:xlink="http://www.w3.org/1999/xlink" x="0px" y="0px"
	 viewBox="0 0 92.5 73.3" style="enable-background:new 0 0 92.5 73.3;" xml:space="preserve">
<style type="text/css">
	.st0{stroke:#000000;stroke-width:0.1;stroke-miterlimit:10;}
</style>
<path class="st0" d="M1.4,56.7l21.7-3c1-0.1,1.7-1.1,1.6-2.1c0-0.1,0-0.2-0.1-0.3L13.9,12.7c-0.3-1,0.3-2,1.3-2.3
	c0.1,0,0.3-0.1,0.5-0.1l43-0.9c0.4,0,0.8-0.1,1.2-0.3l16-8.9c0.7-0.4,1.5-0.1,1.9,0.5c0,0.1,0.1,0.1,0.1,0.2l5,14.1
	c0.3,0.8-0.1,1.6-0.8,2l-1.7,0.9c-0.6,0.3-0.9,1-0.7,1.6l12.7,35.4c0.4,1.3-0.2,2.7-1.5,3.2c-0.1,0-0.1,0-0.2,0.1l-60.2,15
	c-0.8,0.2-1.6,0.1-2.3-0.2L0.9,59.7c-0.8-0.4-1.1-1.3-0.7-2.1C0.5,57.1,0.9,56.8,1.4,56.7z"/>
</svg>
