<?xml version="1.0" encoding="utf-8"?>
<!-- Generator: Adobe Illustrator 22.0.1, SVG Export Plug-In . SVG Version: 6.00 Build 0)  -->
<svg version="1.1" id="Layer_1" xmlns="http://www.w3.org/2000/svg" xmlns:xlink="http://www.w3.org/1999/xlink" x="0px" y="0px"
	 viewBox="0 0 100 100" style="enable-background:new 0 0 100 100;" xml:space="preserve">
<style type="text/css">
	.st0{fill:none;stroke:#000000;stroke-width:0.1;}
</style>
<path class="st0" d="M95,43c0-12-9-23-21-23C70.6,10.6,62,3,50,3C38.9,3,30,9.9,27,20C15.6,22.1,5,31,5,43c0,6.9,3,14,8,18
	c-2.2,3.7-3,7.5-3,12c0,13.5,12,24,24,24c5.9,0,11.8-1.5,16-5c4.2,3.5,9.1,5,15,5c13.5,0,24.5-11,24.5-23c0-4.8-0.1-9.2-2.5-13
	C91.8,56.5,95,50.1,95,43z"/>
</svg>
