<?xml version="1.0" encoding="utf-8"?>
<!-- Generator: Adobe Illustrator 25.0.0, SVG Export Plug-In . SVG Version: 6.00 Build 0)  -->
<svg version="1.1" id="Layer_1" xmlns="http://www.w3.org/2000/svg" xmlns:xlink="http://www.w3.org/1999/xlink" x="0px" y="0px"
	 viewBox="0 0 100 100" style="enable-background:new 0 0 100 100;" xml:space="preserve">
<style type="text/css">
	.st0{stroke:#000000;stroke-width:0.1;stroke-miterlimit:10;}
</style>
<path d="M-32,10h-10h-10h-10h-10h-10h-10h-10v10v10v10v10v10v10v10v10h10h10h10h10h10h10h10h10V80V70V60V50V40V30V20V10H-32z
	 M-32,30v10h-10h-10v10h10v10v10v10h-10V70h-10h-10v10h-10V70V60V50h10V40h-10h-10V30V20h10h10v10v10h10h10V30V20h10h10V30z"/>
<path class="st0" d="M80,10H70H60H50H40H30H20H10v10v10v10v10v10v10v10v10h10h10h10h10h10h10h10h10V80V70V60V50V40V30V20V10H80z
	 M80,30v10H70H60v10h10v10v10v10H60V70H50H40v10H30V70V60V50h10V40H30H20V30V20h10h10v10v10h10h10V30V20h10h10V30z"/>
</svg>
