<?xml version="1.0" encoding="utf-8"?>
<!-- Generator: Adobe Illustrator 25.0.0, SVG Export Plug-In . SVG Version: 6.00 Build 0)  -->
<svg version="1.1" id="Layer_1" xmlns="http://www.w3.org/2000/svg" xmlns:xlink="http://www.w3.org/1999/xlink" x="0px" y="0px"
	 viewBox="0 0 100 100" style="enable-background:new 0 0 100 100;" xml:space="preserve">
<style type="text/css">
	.st0{stroke:#000000;stroke-width:0.1;stroke-miterlimit:10;}
</style>
<path class="st0" d="M46.3,96c-2.6-0.5-5.2-0.8-7.7-1.5c-10-3-17-9.2-19.3-19.6c-2.4-11,1.1-20,9.9-26.9c3-2.4,6.3-4.5,9.5-6.7
	c4.7-3.2,5.6-5.7,4-11c-0.1-0.4-0.3-0.9-0.4-1.3c-0.2-1.1-1.7-2.1-0.7-3.2c1-1,2.2,0,3.2,0.5c1.8,0.9,2.3,0.1,2.7-1.6
	c0.9-4.3,2.4-8.3,4.2-12.3c0.5-0.9,0.7-2.1,2.1-2.8c-0.4,2-0.8,3.8-1.2,5.6c3.6-4.9,7.6-9.1,12.8-12.4c-2,3.6-5,6.5-6.7,10.3
	c4.1-2.8,8-5.8,13.2-7.3c-0.2,1.3-1.1,1.8-1.7,2.4C64.3,13.8,59,20,54.3,26.7c-1,1.4-1.7,2.6,0.5,3.6c0.9,0.4,0.8,1.3,0.8,2.1
	c-0.2,4.7,2.3,7.6,6.2,9.7c4.4,2.4,8.7,5,11.9,8.8c6.9,8.2,9.1,17.4,5.2,27.6C74.8,89,66.6,94,56,95.5c-0.9,0.1-1.8,0.3-2.7,0.5
	C51,96,48.6,96,46.3,96z"/>
</svg>
