<?xml version="1.0" encoding="utf-8"?>
<!-- Generator: Adobe Illustrator 25.1.0, SVG Export Plug-In . SVG Version: 6.00 Build 0)  -->
<svg version="1.1" id="Layer_1" xmlns="http://www.w3.org/2000/svg" xmlns:xlink="http://www.w3.org/1999/xlink" x="0px" y="0px"
	 viewBox="0 0 100 100" style="enable-background:new 0 0 100 100;" xml:space="preserve">
<style type="text/css">
	.st0{fill:none;stroke:#000000;stroke-width:0.1;stroke-miterlimit:10;}
</style>
<path class="st0" d="M30.7,22c-0.8,1.2-6,4.1-7.6,5.7c-1.6,1.6-3.2,3.7-3.2,6.5s1.2,3.2,3.2,5.3s3.2,2.4,3.2,3.7s-1.6,7.7-1,12
	c0.6,4.3,6.2,15.2,6.2,19.3c0,3.7-5.7,10.8-6.7,15.4c-0.2,0.8,0.1,1.6,0.8,2.1c1,0.7,2.9,1.7,6.3,1.9c5.6,0.4,25.8,1.2,31.4,0.4
	c4.9-0.7,9.4-1.4,12.1-2.6c0.7-0.3,1-1.1,0.7-1.8l-1.5-3.3c0,0,5.6-2.4,5.6-6.1c0-3.7-2.8-5.7-4.4-8.1c-1.5-2.2-1.3-8.5-4.6-13.2
	c-7.1-9.9-18-10.3-21.6-15.7c-2.8-4.3-3.2-5.5-2.8-10.4c0.4-5.3,6-15,4.4-20.7c-1.2-4.1-4.4-5.7-5.6-4.5c-0.4,0.4-2,1.6-2.4-0.8
	c-0.2-1.4-4-2.8-6.8,1.2C33.5,12.2,32.7,18.7,30.7,22z"/>
</svg>
