<?xml version="1.0" encoding="utf-8"?>
<!-- Generator: Adobe Illustrator 25.0.0, SVG Export Plug-In . SVG Version: 6.00 Build 0)  -->
<svg version="1.1" id="Layer_1" xmlns="http://www.w3.org/2000/svg" xmlns:xlink="http://www.w3.org/1999/xlink" x="0px" y="0px"
	 viewBox="0 0 100 100" style="enable-background:new 0 0 100 100;" xml:space="preserve">
<style type="text/css">
	.st0{stroke:#010202;stroke-width:0.1;stroke-miterlimit:10;}
</style>
<path class="st0" d="M83.8,98.4c0,0,0.1-13.2,0-16.4c-0.1-3.1-4.5-7.4-4.7-11c-0.1-3.6,2.7-4.2,2.7-6.9c0-2.7-4-0.4-4.6-3
	c-0.6-2.7,4.9-3.6,4.9-6.7c0-3.1-0.6-2.5-0.7-4.5c0-2,0.9-2.5,1.2-3.2c0.3-0.7,0.4-2.1-0.4-4s-3-2.7-3-4.5s3.9-1.7,3.9-3.3
	s-6.6-3.2-5.3-5.1c1.8-2.7,5.2-3.8,5.2-6s-1.6-3.2-2.5-5.2s1.6-5.2,2.5-6.4c1-1.2,1.1-2,1.1-3.1s0.1-7.3,0.1-7.3l0,0H15.6l0,0
	c0,0,0,6.3,0.1,7.3c0,1.1,0.2,1.9,1.1,3.1c1,1.2,3.4,4.4,2.5,6.4s-2.5,3-2.5,5.2s3.4,3.3,5.2,6c1.3,1.9-5.3,3.5-5.3,5.1
	s3.8,1.5,3.9,3.3c0,1.8-2.2,2.6-3,4.5s-0.7,3.3-0.4,4c0.3,0.7,1.2,1.2,1.2,3.2s-0.7,1.4-0.7,4.5s5.5,4.1,4.9,6.7
	c-0.6,2.7-4.6,0.3-4.6,3c0,2.7,2.9,3.3,2.7,6.9c-0.1,3.6-4.6,7.9-4.7,11c-0.1,3.2,0,16.4,0,16.4H83.8z"/>
</svg>
