<?xml version="1.0" encoding="utf-8"?>
<!-- Generator: Adobe Illustrator 25.0.0, SVG Export Plug-In . SVG Version: 6.00 Build 0)  -->
<svg version="1.1" id="Layer_1" xmlns="http://www.w3.org/2000/svg" xmlns:xlink="http://www.w3.org/1999/xlink" x="0px" y="0px"
	 viewBox="0 0 100 100" style="enable-background:new 0 0 100 100;" xml:space="preserve">
<style type="text/css">
	.st0{stroke:#000000;stroke-width:0.1;stroke-miterlimit:10;}
</style>
<path class="st0" d="M91,2.6C83.7,7,47.4,24.8,46.8,26.5c10.1-4.1,32.8-10.8,41.5-15c1.4,1.5,5.9,13.3,7.1,14.8
	c-13.9,3.9-33.5-1.1-47.5,3.1c0.3,1.5,8.5,1.6,10.8,2.4c3.8,1.2,13.8,12.6,15.8,14.8c1.9,2,14.8,15.7,15.7,18.4
	c1,3.3-18,32.4-19.4,33.3c-1.3,0.2-28.4-10.2-30.2-13.2c-2.2-3.5-11.9-31.4-12.2-33c-0.3-2-0.7-3.9-1.3-5.8
	C26.5,44.6,36.8,34,34.6,34c-7,3.9-22.2,20.2-24.3,23C7.8,55.3,6,38.8,5.6,37.8c5.4-1,11.1-3.2,16.9-4.4C25,32.9,32.9,30,35,29.8
	C35.9,28.3,3.5,3.5,3.5,3.5L91,2.6z"/>
</svg>
