<?xml version="1.0" encoding="utf-8"?>
<!-- Generator: Adobe Illustrator 25.1.0, SVG Export Plug-In . SVG Version: 6.00 Build 0)  -->
<svg version="1.1" id="Layer_1" xmlns="http://www.w3.org/2000/svg" xmlns:xlink="http://www.w3.org/1999/xlink" x="0px" y="0px"
	 viewBox="0 0 100 100" style="enable-background:new 0 0 100 100;" xml:space="preserve">
<style type="text/css">
	.st0{fill:none;stroke:#000000;stroke-width:0.1;stroke-miterlimit:10;}
</style>
<path class="st0" d="M10.57,32.89c-0.62,0.2-1.16,0.7-1.68,1.13c-0.91,0.75-1.53,3.23-1.13,4.41c0.48,1.42,1.65,1.71,2.94,1.83
	c0.32,0.03,0.73,0.08,0.94,0.29c1.19,1.24,2.33,2.53,3.49,3.8c1.55,1.71,3.22,3.34,5.49,3.92c1.37,0.35,1.27,1.48,1.7,2.35
	c0.06,0.12-0.28,0.47-0.47,0.69c-0.53,0.61-1.42,1.14-1.56,1.83c-0.74,3.62,0.6,7.95,4.41,9.52c1.87,0.77,3.59,1.94,5.38,2.92
	c1.84,1.02,5.29,0.81,6.6-0.38c1.1-1,2.2-1.99,3.45-3.11c-0.22,1.39-0.61,2.62-0.56,3.83c0.13,2.75-1.45,4.17-3.58,5.22
	c-0.26,0.13-0.93-0.06-1.07-0.3c-0.65-1.11-1.55-1.21-2.7-1.11c-1.25,0.11-1.84,0.83-2.47,1.8c-0.92,1.41-1.01,2.27-0.04,3.61
	c0.27,0.37,0.44,0.89,0.8,1.12c0.86,0.54,1.78,1.21,2.73,1.34c1.74,0.23,2.28-1.47,3.15-2.56c0.37-0.46,0.57-1.22,1.02-1.41
	c2.51-1.08,3.65-3.24,4.55-5.62c0.6-1.58,1.13-3.19,1.77-5c0.77,1.46,1.24,2.7,1.99,3.73c1.37,1.89,2.93,3.64,4.37,5.49
	c1.69,2.17,3.94,3.42,6.45,4.36c1.02,0.38,2.12,0.9,2.85,1.68c2.41,2.57,4.56,5.41,7.45,7.49c1.64,1.18,3.18,2.67,5.01,3.37
	c3.26,1.26,6.42,2.77,10.14,2.83c3.83,0.06,7.51-0.47,11.16-1.41c1.22-0.31,1.97-2.38,1.57-3.8c-0.24-0.87-1.47-1.36-2.69-1.06
	c-1.35,0.33-2.68,0.8-4.05,0.97c-2.37,0.29-4.76,0.57-7.14,0.53c-3.21-0.05-6.11-1.3-8.76-3.05c-2.75-1.82-5.41-3.78-7.12-6.73
	c-0.39-0.68-0.84-1.68-0.62-2.29c0.68-1.82,0.94-3.62,0.83-5.54c-0.18-3.05-0.38-6.04-1.7-8.9c-0.89-1.92-1.01-4.09,1.39-5.28
	c0.5-0.25,0.98-0.78,1.23-1.29c0.54-1.11,0.92-2.29,1.38-3.49c0.82,0.02,1.46,0.13,1.76,1.32c0.18,0.68,1.19,1.41,1.96,1.59
	c0.81,0.19,1.79-0.17,2.65-0.44c1.63-0.5,3.02-3.44,2.48-5.07c-0.68-2.03-2.49-2.84-4.65-2.09c-0.47,0.16-0.94,0.31-1.72,0.56
	c1.52-1.87,3.01-3.28,3.97-4.99c0.97-1.73,1.42-3.76,2.1-5.69c0.31-0.16,0.82-0.32,1.21-0.64c2.04-1.64,1.51-3.08,0.48-5.52
	c-0.85-2.03-1.55-2.29-3.56-1.84c-0.79,0.17-1.5,0.74-2.37,1.2c-0.84-1.61-1.9-3.23-2.55-5c-1.02-2.79-2.63-4.65-5.67-4.96
	c-0.49-0.05-0.96-0.26-1.45-0.38c-1.02-0.24-1.35-1.04-1.48-1.94c-0.21-1.49-0.39-3-0.49-4.5c-0.03-0.39,0.25-0.81,0.43-1.2
	c0.22-0.48,0.68-0.95,0.68-1.42c0.02-1.97-1.39-3.55-3.37-3.59c-0.87-0.02-1.76,0.51-2.64,0.83c-1.07,0.39-2.2,3.01-1.49,3.84
	c0.8,0.94,1.81,1.83,2.91,2.33c0.86,0.39,1.33,0.89,1.35,1.67c0.02,0.92-0.25,1.85-0.33,2.4c-1.68-0.16-3.07-0.39-4.45-0.38
	c-1.15,0-2.29,0.43-3.44,0.41c-1.22-0.02-2.43-0.36-3.66-0.53c-2.02-0.28-4.94,0.59-5.89,3.06c-0.57,1.49-1.31,2.91-2.12,4.67
	c-1-1.83-1.97-3.53-2.87-5.26c-0.32-0.62-0.79-1.45-0.62-2c0.56-1.81-0.55-3.02-1.25-4.35c-0.49-0.92-2.54-0.81-3.21,0.04
	c-0.29,0.36-0.61,0.69-0.94,1.01c-0.88,0.88-1.04,3.58-0.46,4.65c1.04,1.93,2.83,1.71,4.8,1.86c0.82,2.95,1.66,5.96,2.51,8.97
	c-0.12,0.06-0.24,0.13-0.37,0.19c-0.18-0.13-0.47-0.23-0.51-0.4c-0.49-1.76-1.52-2.62-3.36-3.12c-3.27-0.89-6.05,0.14-7.36,3.21
	c-0.18,0.42-0.42,0.85-0.75,1.14c-0.96,0.83-2.07,1.5-2.95,2.4c-0.76,0.77-1.47,1.69-1.86,2.69c-0.52,1.33-0.82,2.78-1,4.2
	c-0.14,1.08-0.26,2.24,0.66,3.17c0.63,0.64,1.15,1.4,1.71,2.1c-0.09,0.08-0.19,0.17-0.28,0.25c-0.36-0.18-0.7-0.41-1.08-0.53
	c-1.68-0.52-2.59-1.93-3.67-3.16c-1.23-1.39-1.1-2.86-0.92-4.69C14.61,34.11,13.17,32.03,10.57,32.89z"/>
</svg>
