<?xml version="1.0" encoding="utf-8"?>
<!-- Generator: Adobe Illustrator 25.0.0, SVG Export Plug-In . SVG Version: 6.00 Build 0)  -->
<svg version="1.1" id="Layer_1" xmlns="http://www.w3.org/2000/svg" xmlns:xlink="http://www.w3.org/1999/xlink" x="0px" y="0px"
	 viewBox="0 0 425.2 425.2" style="enable-background:new 0 0 425.2 425.2;" xml:space="preserve">
<path d="M386.6,95.9l-166.9-0.5c1.6-3.6,2.9-8.2,2-13.1c-3.8-20.6-42.9-30.1-67.2-31.5c-31.7-1.8-76.7,7.8-82.7,31.7
	c-1.3,5.2-0.4,10,0.5,13.4H38.6v200.7h162.7c-1.7,2.5-3.5,6-3.2,10.2c1,18.6,42.1,33.7,75.4,34.9c26.5,1,68.6-6,74.4-27.9
	c1.6-6.2,0-12.3-2.2-17.2c13.6,0,27.3,0,40.9,0V95.9z M242.8,185.6c-41.6,0-75.4-15.6-75.4-34.9c0-19.3,33.8-34.9,75.4-34.9
	s75.4,15.6,75.4,34.9C318.2,170,284.4,185.6,242.8,185.6z"/>
</svg>
