<?xml version="1.0" encoding="utf-8"?>
<!-- Generator: Adobe Illustrator 25.1.0, SVG Export Plug-In . SVG Version: 6.00 Build 0)  -->
<svg version="1.1" id="Layer_1" xmlns="http://www.w3.org/2000/svg" xmlns:xlink="http://www.w3.org/1999/xlink" x="0px" y="0px"
	 viewBox="0 0 100 100" style="enable-background:new 0 0 100 100;" xml:space="preserve">
<style type="text/css">
	.st0{fill:none;stroke:#000000;stroke-width:0.1;stroke-miterlimit:10;}
</style>
<path class="st0" d="M46.29,96c-2.56-0.49-5.19-0.76-7.68-1.51c-10-2.99-17-9.19-19.31-19.64c-2.43-10.96,1.13-19.98,9.92-26.87
	c3.05-2.4,6.33-4.51,9.55-6.69c4.69-3.16,5.61-5.65,3.97-11.01c-0.13-0.43-0.34-0.85-0.44-1.28c-0.24-1.08-1.69-2.13-0.67-3.19
	c1-1.04,2.22,0.03,3.21,0.52c1.81,0.89,2.35,0.12,2.69-1.57c0.86-4.27,2.38-8.34,4.23-12.28c0.45-0.94,0.68-2.07,2.06-2.75
	c-0.44,2.03-0.83,3.83-1.22,5.63C56.17,10.46,60.25,6.22,65.4,3c-2,3.6-4.99,6.54-6.74,10.33c4.12-2.83,8.04-5.85,13.18-7.32
	c-0.18,1.3-1.08,1.8-1.72,2.41c-5.89,5.65-11.24,11.76-15.91,18.47c-1,1.43-1.68,2.63,0.5,3.6c0.88,0.39,0.85,1.32,0.81,2.14
	c-0.2,4.66,2.33,7.57,6.16,9.7c4.35,2.43,8.67,4.97,11.94,8.82c6.95,8.17,9.11,17.44,5.2,27.56c-3.98,10.3-12.21,15.27-22.82,16.8
	c-0.89,0.13-1.76,0.32-2.65,0.49C50.99,96,48.64,96,46.29,96z"/>
</svg>
