<svg id="Layer_2" data-name="Layer 2" xmlns="http://www.w3.org/2000/svg" viewBox="0 0 65.12 95.11"><defs><style>.cls-1{fill:none;stroke:#000;stroke-miterlimit:10;stroke-width:0.1px;}</style></defs><path class="cls-1" d="M50.59,16.85H45a7,7,0,0,0-2.21.39c-.35.1-.76.37-1.09.44s-.44,0-.67,0-.56.13-.71.18-.45.15-.71.22a9.71,9.71,0,0,1-3.69.29,5.5,5.5,0,0,1-1.5-.49,6.59,6.59,0,0,0-1.48-.4c-.41-.1-.83-.38-1.25-.53s-1-.39-1.56-.58A6.18,6.18,0,0,1,27.75,15c-.25-.26-.58-.51-.83-.77-.59-.62-.62-1.34-1-2-.22-.46-.79-.78-1-1.24A19.17,19.17,0,0,1,24.51,9a14.29,14.29,0,0,1-.29-4c0,.87-.72,1.73-.72,2.6,0,.47.22.85.24,1.3a4.14,4.14,0,0,0,.36,1.4,4.29,4.29,0,0,1,.36,1.46,6.6,6.6,0,0,0,0,1.54,11.8,11.8,0,0,0,.88,3.32,5.51,5.51,0,0,0,1.55,1.86,11.59,11.59,0,0,0,2.4,1c1.45.57,3.15.73,4.63,1.24A13.66,13.66,0,0,0,38,21a9.93,9.93,0,0,0,2.08-.35c.44-.07,1-.12,1.41-.17s.86-.15,1.28-.18c.76,0,1.55,0,2.31,0s1.29.45,2.16.52a15.73,15.73,0,0,1-1.56,1.05c-.42.25-1,.36-1.44.6s-.94.68-1.49,1a8.41,8.41,0,0,0-1.51.91,7.48,7.48,0,0,1-1.34,1.13,5.5,5.5,0,0,0-1.6,1,8.3,8.3,0,0,0-1,1.4,4.26,4.26,0,0,1-.85,1.32c-.22-.27.43-.48.62-.67s.11-.24.23-.35.27-.16.37-.25a3.51,3.51,0,0,1,1.85-1.18A11.19,11.19,0,0,0,41,26.34a11.48,11.48,0,0,0,1.29-.46c.39-.21.57-.62.91-.88s1.17-.48,1.15-.87c0,.31-.46.46-.67.7s-.31.42-.52.62a9.4,9.4,0,0,0-.74.66c-.18.21-.26.42-.46.62-.47.48-1.06.84-1.54,1.31a7.85,7.85,0,0,1-1.35,1.13A5.6,5.6,0,0,0,38,30c-.44.42-1.14.71-1.62,1.13s-1,1-1.52,1.48c-.32.3-.77.62-.8,1a.45.45,0,0,1-.44-.35A8.34,8.34,0,0,0,36,33a8.68,8.68,0,0,0,2.4-.79,18.7,18.7,0,0,0,1.52-1.12c.25-.2.58-.35.82-.56s0-.2.28-.36.46,0,.49-.29c0,.5-.21.45-.54.86a7.75,7.75,0,0,0-.72,1,12,12,0,0,0-.89,1.75c-.24.59-.81,1.14-1.09,1.72a6.1,6.1,0,0,1-.72,1,3,3,0,0,1-.35.53c-.14.14-.35.22-.49.36s-.47.5-.77.75-.55.51-.84.75a3,3,0,0,0-.54.65,2.43,2.43,0,0,0-.3.87c-.11.34-.35.68-.48,1s-.25.84-.41,1.23-.26.4-.25.77a14,14,0,0,1-.24,1.82c-.08-.46.29-.35.58-.73a2.46,2.46,0,0,1,1.28-.87,8.5,8.5,0,0,0,1.5-.44,9.67,9.67,0,0,0,1-.73,9.18,9.18,0,0,0,2-1.74,2.37,2.37,0,0,1,1.28-.69c.38-.12,1.09-.28.94-.69a3.36,3.36,0,0,1,0,1,5.23,5.23,0,0,1-.52,1c-.39.76-.74,1.5-1.2,2.22-.2.32-.39.44-.42.82s0,.75,0,1.12a3.13,3.13,0,0,0,0,.53c0,.21.13.22.19.38a4.55,4.55,0,0,0,.31.9c.16.24.49.4.64.66a1.79,1.79,0,0,1,.3,1c0,.35,0,.7,0,1a3.91,3.91,0,0,1-.22,1.13,3.14,3.14,0,0,0,.21,2c.17.34.36.66.56,1s0,.81.21,1.23l.2,0a4.86,4.86,0,0,1,0,1.57,3.22,3.22,0,0,0-.19,1.2,6.86,6.86,0,0,1-.29,2.39c-.5,1.4-2.08,2.56-3.31,3.75-.63.61-1.32,1.16-1.89,1.77-.23.25-.3.58-.53.83a5.76,5.76,0,0,1-.81.62,5.31,5.31,0,0,1-2.39.88,3.63,3.63,0,0,0-.85.12,6,6,0,0,1-.72.22,2.59,2.59,0,0,0-1.08.52c-.38.25-.88.35-1.26.56a3.71,3.71,0,0,0-1,.83c-.26.28-.62.5-.9.78s-.21.81-.64,1.13a.56.56,0,0,1-.43-.53,5.93,5.93,0,0,0,3-1.21,4.86,4.86,0,0,1,3.24-.69,5.76,5.76,0,0,1-1,1c-.37.4-.7.86-1.07,1.22s-.66.6-1,.87-.73.57-1.08.83-.82.58-1.26.86c-.18.11-.3.28-.46.39s-.59.23-.87.39-.85.47-1.24.73a2.53,2.53,0,0,1-1.68.44,3.2,3.2,0,0,0,1.42-.22A9,9,0,0,0,25,75.46a7.8,7.8,0,0,0,1.09-.69c.28-.27.37-.56.76-.79.84-.47,1.85-.85,2.66-1.34.43-.26.79-.54,1.18-.83s.75-.29.73-.86a3.24,3.24,0,0,1,0,.88,5.83,5.83,0,0,1-.89,1.55A14.89,14.89,0,0,1,29,75.53a15.93,15.93,0,0,1-1.74,1.62,6.6,6.6,0,0,0-.72.56c-.25.27-.6.85-1.13.35,0-.23.34-.37.53-.51a6.91,6.91,0,0,0,.72-.71,13.8,13.8,0,0,1,1.2-1,4,4,0,0,0,.83-.73,6.45,6.45,0,0,1,1.39-1c.42-.31.71-.71,1.13-1a10,10,0,0,0,1.34-1c.32-.33.53-.7.83-1s.67-.58.66-1.08a15.69,15.69,0,0,1,0,1.94A16.11,16.11,0,0,1,33,74.92a16.66,16.66,0,0,1-.88,2.1c-.17.32-1,1.77-1.39,1.73,0-1,.84-1.79,1.45-2.7.31-.46.42-1,.71-1.47s.31-.72.51-1.12a6.89,6.89,0,0,1,.63-1c.24-.34.3-.67.54-1s.37-.54.54-.82.08-.36.16-.58.34-.3.44-.49,0-.35.1-.5.27-.25.38-.39.27-.41.44-.6a2.5,2.5,0,0,1,.57-.44,5,5,0,0,0,.72-.61c.8-.71,1.82-1.31,2.71-2A4.49,4.49,0,0,0,42,63.5a2.64,2.64,0,0,1,.23-.44,4.82,4.82,0,0,1,.35-.44,5.71,5.71,0,0,1,1.08-.85,14.88,14.88,0,0,0,2.11-1.58,7.43,7.43,0,0,1,1.59-1c.39-.2.68-.52,1.09-.72l1-.48c.39-.2.83-.16,1.21-.34a4.9,4.9,0,0,1,0,1.38c-.19.48-.47,1-.71,1.48-.38.8-.83,1.58-1.22,2.34a10.28,10.28,0,0,1-.6,1.08c-.12.16-.25.31-.36.48a3.56,3.56,0,0,1-.61.56c-.7.66-1.21,1.44-1.88,2.11a4.64,4.64,0,0,0-.78.88c-.26.44-.54.86-.82,1.3s-.45.79-.72,1.18a5.09,5.09,0,0,1-.8.81c-.35.36-.8.69-1.08,1a8.73,8.73,0,0,0-.75,1.15,13.1,13.1,0,0,0-.66,1.2,8,8,0,0,1-.41,1.22,1.29,1.29,0,0,0-.31.7,2,2,0,0,1-.22.71,4.69,4.69,0,0,0,0,1.45v2.09a3.87,3.87,0,0,0,.24,2c1.22,2.15,0,4.65,0,7a5.67,5.67,0,0,1,0,1.54c-.08.22-.22.25-.26.5a4.33,4.33,0,0,0,0,.72c0,.9.19,2.39-1.55,2.41-.56,0-1.13,0-1.68,0a11.54,11.54,0,0,1-1.56-.35,11.38,11.38,0,0,0-1.68-.17,7.55,7.55,0,0,1-1.78,0c-.39-.12-.66-.5-1-.68a3.81,3.81,0,0,0-1.56-.35,3.82,3.82,0,0,1-1.25-.3c-.62-.18-1.25-.23-1.87-.39s-1.09-.1-1.67-.21a10.1,10.1,0,0,0-1.92-.13h-1a1.56,1.56,0,0,0-.84.17,5,5,0,0,1-.7.19c-.18,0-.56.18-.6.29a10.24,10.24,0,0,0,3-.13,9.91,9.91,0,0,1,2.7.21c.3.07.64.25,1,.35s.84.18,1.26.35a6.06,6.06,0,0,1,1.15.51,3.7,3.7,0,0,1,.5.8,4.55,4.55,0,0,1-2.5-.7,3.24,3.24,0,0,0-2.15-.49c-.44,0-.88.12-1.32.17a10.06,10.06,0,0,0-1,.32c-.39.07-2.49-.17-1.83.52.5.53,1.66,0,2.24,0a13.37,13.37,0,0,1,2.53,0c.22,0,.24.15.45.19s.41,0,.6,0,.2.13.36.16a3.56,3.56,0,0,0,.73,0,14,14,0,0,1,1.45,0c.35,0,.33-.07.49.16s0,.4-.05.51c-1.42.3-2.89,0-4.28.24a2.6,2.6,0,0,0-1.26.44c-.27.2-.71.54-.68.84a5.39,5.39,0,0,0,.93-.67,2.49,2.49,0,0,1,1.25-.52c.89-.18,1.84-.32,2.77-.44.44-.06.88,0,1.31,0s.77-.17,1.2-.18a9.89,9.89,0,0,1,1.44,0c.41,0,.73.15,1.16.22.89.14,1.78.19,2.67.31s1.55.12,2.4.16,1.52.18,2.35.18h1.72c.62,0,1.09-.13,1.68-.18a4.53,4.53,0,0,0,1.44-.34,4.33,4.33,0,0,0,1.68-1.39,1.13,1.13,0,0,0,.25-1c-.13-.32-.84-.56-1.21-.69a4.19,4.19,0,0,0-1.2-.17c-.38,0-.81.1-1-.16-.07-.11,0-.4,0-.53a2,2,0,0,0-.2-.56A4.62,4.62,0,0,1,42,90a8.67,8.67,0,0,1,.18-2.59,12.12,12.12,0,0,0,.78-3.45,3.79,3.79,0,0,0-.05-1,8,8,0,0,0-.44-1.05,11.05,11.05,0,0,1-.28-1.24c-.12-.45-.41-.72-.43-1.19,0-.63,0-1.25,0-1.88s-.2-.89.48-1.08c.12,0,.29,0,.43,0a3.5,3.5,0,0,0,.53-.31,9,9,0,0,0,1.15-.74c.5-.36.6-.71,1-1.13s1.11-.62,1.51-1a14.34,14.34,0,0,1,2.34-2.55,7.31,7.31,0,0,0,.66-.41,5.2,5.2,0,0,1,.86-.72c.58-.35,1.21-.67,1.79-1a5,5,0,0,0,.77-.66c.37-.34.83-.6,1.19-.93a8.15,8.15,0,0,1,1.17-1.18,1.82,1.82,0,0,0,.76-.66,5.49,5.49,0,0,1,1.25-1.25c.31-.24.66-.81,1.15-.88a2.42,2.42,0,0,1-.49,1.57,10,10,0,0,0-.77,1.38,3.33,3.33,0,0,0-.18,1.21c0,.48-.25.89-.24,1.4,0,1.57-1,3-.73,4.68.06.36.37.66.49,1a3.68,3.68,0,0,1,.24,1.22c0,.4,0,.81,0,1.21,0,.66-.4,1.06-.72,1.69a4.57,4.57,0,0,1-1.26,1.74c-.28.21-.62.39-.9.6a3.4,3.4,0,0,0-.79.82,5.59,5.59,0,0,0-.22.57c-.16.34-.48.6-.61,1a4.62,4.62,0,0,0-.31,1c0,.3.11.66,0,.95s-.24.43-.25.7a2.35,2.35,0,0,1-.05.65c-.08.22-.19.28-.19.56a2.82,2.82,0,0,1,0,.71,5.54,5.54,0,0,0-.22,1.27,3.63,3.63,0,0,1-.24,1c0-.42-.06-.69.24-1s.63-.49.73,0a9.19,9.19,0,0,1,0,2c-.09-.55,1-2.37,1.82-2.39.63,0,.34,1.33.34,1.7a1.58,1.58,0,0,1,.25-1.09c0,.25-.29,2.67.66,2.34a3.51,3.51,0,0,0,.29-1.34c0,.56.3,2,1.46,1.87.44-.36.21-1.08.22-1.52,0,.29,0,1.91.68,1.68a4.32,4.32,0,0,0,0-1.68c-.2.68,1.14,1.43,1.92,1.52s.72-.15.72-.64c0,.23-.15.74.19.8.16-.23,0-.56,0-.81.11.23.33.59.69.63.14-.37-.11-.8.09-1.15.37.27.53.72,1.16.79s.33-.29.52-.65c.38.1.52.53,1,.61.68.11.53-.23.65-.6.58.11.87.61,1.4.07.11-.1.16-.55.28-.59.46-.19.42.28.47.48.34.13.59-.1.41-.34s-.55-.16-.8-.23c-.9-.26-1.46-.93-2.29-1.24a2.11,2.11,0,0,1-1.26-1c-.25-.4-.19-.46-.66-.66a.82.82,0,0,1-.48-.34,2.06,2.06,0,0,1-.23-.7c-.07-.23-.26-.38-.37-.6A10,10,0,0,1,60.9,84a2.16,2.16,0,0,0-.3-.61c-.21-.32-.14-.55-.16-.9,0-.62-.51-1.12-.5-1.74s-.24-.91-.23-1.43a2.47,2.47,0,0,0-.36-1.21,8.64,8.64,0,0,1-1.08-3.56v-1.3a3.7,3.7,0,0,1,.59-1.56A8.86,8.86,0,0,0,59.7,70c.11-.52.37-1,.5-1.52a6,6,0,0,0,0-1.47,2.27,2.27,0,0,1,.06-.78c.1-.32.1-.6.17-.92s.28-.61.38-.91a4.92,4.92,0,0,1,.29-.95,1.55,1.55,0,0,1,1.5-.86c0,.89-1.21,1.61-1.2,2.51a5.22,5.22,0,0,0,.43,1.48,4.07,4.07,0,0,1,0,1.21c0,.4,0,.81,0,1.21a12,12,0,0,0,.25,1.22,1.63,1.63,0,0,0,.2,1,4.71,4.71,0,0,1,.49.86A6.21,6.21,0,0,0,64,73.9,2.64,2.64,0,0,1,64.51,75c0,.2-.05.42,0,.61s.17.28.22.45a2.89,2.89,0,0,1,0,.59,1.63,1.63,0,0,0,.19.52,6,6,0,0,0,.6,1.18,12,12,0,0,1,.41,1.57,4.46,4.46,0,0,0,.25.55c.07.15.19.36.24.51a9.25,9.25,0,0,1,0,2.35,2.69,2.69,0,0,0,.48,1.12,2.53,2.53,0,0,0,.66.91,5,5,0,0,1,.77,1.09A19,19,0,0,1,69.91,90c.31.81.62,1.62.9,2.44.08.24.44,1.19.13,1.42a5.94,5.94,0,0,1-1.64,0H62.94a19,19,0,0,0-3.47.13C58,94.24,57,93.51,56,92.88a4.5,4.5,0,0,0-1.18-.52c-.26-.07-.54,0-.79-.12s-.48-.23-.77-.31l-1-.22c-.24,0-.49-.16-.72-.22s-.55,0-.84-.07-1.44-.54-1.6-.19,1.54.51,1.82.63.17.17.3.24a4.7,4.7,0,0,0,.66.24,8.86,8.86,0,0,1,1,.38,10.51,10.51,0,0,1,1.37,1.08,3.69,3.69,0,0,1,.89.87c-.84.24-1.67-.37-2.37-.62a7.89,7.89,0,0,0-2.91-.56,1.48,1.48,0,0,0-1.18.42c-.24.16-1.08.33-.6.61a4.77,4.77,0,0,0,1.31,0,9.45,9.45,0,0,1,1.7.31,4.06,4.06,0,0,0,.7,0c.28,0,.46.1.72.14a1.93,1.93,0,0,1,1.15.41c-1.56,0-2.95-.71-4.56-.73a11.17,11.17,0,0,0-1.83,0c-.25.6.1,1.13.26,1.7.32-.07.59-.33.92-.42a17.84,17.84,0,0,1,2.13-.22,21,21,0,0,1,2.86,0,3.05,3.05,0,0,1,1,0c.11.07.07.25.23.33a12.55,12.55,0,0,0-4,.44c-.48.16-.88.25-1,.63s-.11.84.35.83a5.26,5.26,0,0,0,1.35-.57c.41-.15.82-.3,1.25-.43,1.21-.35,2.52-.57,3.67-1a14.93,14.93,0,0,1,3.7-1.07,27,27,0,0,1,3.36-.22,5.11,5.11,0,0,1,1,0c.47.09.89.1,1.38.18,1.2.18,2.49,0,3.66.3a5.3,5.3,0,0,0,1.08.18,6.35,6.35,0,0,1,1.07,0,12.7,12.7,0,0,0,2.4.13A2.2,2.2,0,0,0,75.52,95c.74-.5,1.43-.93,1.45-1.69s.18-1.43-.79-2c-.23-.15-.15-.18-.45-.27-.13,0-.53,0-.67,0a17.21,17.21,0,0,0-2.17-.13c-.74,0-2,.23-2.17-.43-.07-.38.18-.36.44-.6a3.58,3.58,0,0,0,.78-1.32A6.18,6.18,0,0,0,72.41,86a9.53,9.53,0,0,0-.18-2.92,13,13,0,0,0-.52-1.56c-.27-.58-.94-.93-1.46-1.39a7.36,7.36,0,0,1-1-1.18,4.69,4.69,0,0,0-.52-.47c-.37-.34-.34-.69-.38-1.13s.27-.52.24-.86a3,3,0,0,0-.36-1,5.08,5.08,0,0,1-.6-2,19.34,19.34,0,0,1,0-3.88c.2-.88.32-1.64.58-2.47a4.65,4.65,0,0,0,.11-1.11c0-.37.26-.65.25-1a1.35,1.35,0,0,1,0-.53c0-.12.2-.15.23-.26a4.91,4.91,0,0,0,0-.94,2.35,2.35,0,0,0,0-.53c0-.16-.21-.17-.26-.33-.11-.32.13-.7,0-1l-.2,0a7.81,7.81,0,0,1,.18-2.6c.13-.34.12-.69.24-1,.07-.18,0-.34,0-.52s.22-.38.27-.6a9.22,9.22,0,0,0,0-1.39c0-.41.25-.72.25-1.13s0-.75,0-1.13-.19-.59-.25-1a29.65,29.65,0,0,1,0-4.42V45.28a10.58,10.58,0,0,0,0-2.25c-.1-.42-.47-.78-.5-1.21s0-.81,0-1.21a3.74,3.74,0,0,0-.12-1.3c-.07-.2-.08-.42-.17-.62s-.34-.32-.43-.51a2.3,2.3,0,0,0,.72.52,4.89,4.89,0,0,1,.7.52,18.66,18.66,0,0,0,1.94,1,10.6,10.6,0,0,1,3.23,2.33c.37.44.47.94.84,1.38s.64.78,1,1.14,1,.78,1.39,1.22a4.11,4.11,0,0,1,.72,1.25,10.36,10.36,0,0,1,.29,2.91,14.09,14.09,0,0,1-.3,4.1,7.77,7.77,0,0,0-.66,2.14c0,.49,0,1,0,1.47,0,.86.3,2.09-.18,2.87L76.35,63a12.13,12.13,0,0,0-.76,1.21,8.18,8.18,0,0,1-.48.72,3.23,3.23,0,0,0-.53,1.55c0,.79-.25,1.55-.25,2.36a2,2,0,0,1,0-.82c.12-.26.48-.34.62-.55s.08-.67.4-1,.6-.5.85-.77a7.81,7.81,0,0,0,.9-1.31A12.3,12.3,0,0,0,77.92,63a14.27,14.27,0,0,1,1-1.39,7,7,0,0,1-.29,1.86,5.64,5.64,0,0,1-.86,1.3c-.53.64-.83,1.4-1.36,2A5.72,5.72,0,0,0,75.77,68c-.26.48-.12.91-.29,1.39a10,10,0,0,0-.19,3.41c-.11-.54.44-1.19.72-1.67s.47-1.32,1-1.74.41-.26.42-.69.44-1,.5-1.58a3.52,3.52,0,0,1,0-.8c.11-.32.53-.75.43-1.09a6.87,6.87,0,0,0,0,1.87,19.3,19.3,0,0,0,1,1.66,9.12,9.12,0,0,1,.82,2.11c.06.28-.18,1.39.2,1.46a9.36,9.36,0,0,0,.3-3.12,3,3,0,0,0-.3-1.38,3.13,3.13,0,0,1-.18-1.39V65.05a11.92,11.92,0,0,1,0-1.69,3.87,3.87,0,0,1,.43-1.08,7,7,0,0,0,.3-3,13.24,13.24,0,0,0,0,3,3.69,3.69,0,0,1,.26,1c0,.38,0,.75,0,1.13a2.21,2.21,0,0,0,.3,1.09c.18.4.41.89.6,1.34s.38,1,.59,1.43a2,2,0,0,1,.18,1V66.43a7,7,0,0,0,0-1.21c-.06-.33-.25-.5-.24-.86a5.34,5.34,0,0,0,0-1.13c0-.23-.2-.41-.26-.64s.08-.45,0-.66a2.08,2.08,0,0,0-.32-.51c-.17-.29-.21-.58-.41-.86a14.21,14.21,0,0,1-.72-1.24c-.87-1.5-.48-3.37-.48-5V45.83c0-1.13.24-2.19.24-3.31a10.38,10.38,0,0,0-.06-3.1,2.49,2.49,0,0,0-.48-1c-.3-.29-.74-.55-1-.84-.5-.54-.93-1.18-1.41-1.75a8.05,8.05,0,0,0-.71-.88,8.33,8.33,0,0,1-.83-.73c-.61-.75-1.29-1.44-1.93-2.17a5,5,0,0,1-.77-1.11,5.06,5.06,0,0,0-.55-1.12c-.18-.21-.53-.34-.42-.63a1.86,1.86,0,0,0,0-.78,4.2,4.2,0,0,0-.26-.78c-.06-.25.11-.54,0-.79s-.15-.39-.24-.59c-.21-.49-.32-.93-.53-1.4s-.65-.7-.85-1.07-.55-.95-.81-1.42A7.94,7.94,0,0,0,69.18,21c-.17-.19-.39-.37-.55-.56s-.08-.2-.19-.29-.26,0-.35-.1c-.35-.21-.73-.71-1.19-.78a5.13,5.13,0,0,1,1.26-2.61,3.67,3.67,0,0,0,.66-1.21,5.64,5.64,0,0,1,.54-1,7.72,7.72,0,0,0,.36-1.22c.08-.22,0-.44.11-.66s.19-.3.19-.55c0-.84,0-1.68,0-2.52,0-.43.39-.89.25-1.31a2.32,2.32,0,0,0-.73-.81,12.23,12.23,0,0,0-1.45-1.05,2.8,2.8,0,0,1-.41-.25c-.19-.15-.2-.29-.35-.44a6.91,6.91,0,0,0-1-.87c-.46-.3-1-.14-1.43-.38s-.83-.47-1.2-.7A4.7,4.7,0,0,0,62.4,3l-.06.15c-.11.31.36.62.54.86a6.68,6.68,0,0,0,.95,1c.65.54,1.58.77,2.29,1.26a2.88,2.88,0,0,1,.76.58,3.63,3.63,0,0,1,.31.93,7,7,0,0,1,.42,1.22c.06.36.25.56.25.95a4.31,4.31,0,0,1-.3,2.3,13.71,13.71,0,0,1-1.14,1.78,5.79,5.79,0,0,1-.77.69,9.07,9.07,0,0,1-.9.74,5.41,5.41,0,0,0-1.22.78c-.29.27-.54.65-1.19.56s1.28-2.08.6-2.08-1.21-.15-1.92-.17a3.8,3.8,0,0,1-.82-.19c-.3-.05-.67.05-1,0s-.52-.14-.85-.19a4.73,4.73,0,0,0-1.3,0,6.81,6.81,0,0,0-1.8.48c-.47.23-.71.62-1.13.87a3,3,0,0,1-.91.26,6.86,6.86,0,0,0-.91.12C52.11,16.1,50.64,17.38,50.59,16.85Z" transform="translate(-17.93 -2.94)"/></svg>