<?xml version="1.0" encoding="utf-8"?>
<!-- Generator: Adobe Illustrator 25.0.0, SVG Export Plug-In . SVG Version: 6.00 Build 0)  -->
<svg version="1.1" id="Layer_1" xmlns="http://www.w3.org/2000/svg" xmlns:xlink="http://www.w3.org/1999/xlink" x="0px" y="0px"
	 viewBox="0 0 66.2 68.1" style="enable-background:new 0 0 66.2 68.1;" xml:space="preserve">
<style type="text/css">
	.st0{stroke:#000000;stroke-width:0.1;stroke-miterlimit:10;}
</style>
<path class="st0" d="M36.3,68.1h-2.9c-1.4-0.5-2.9-0.9-4.3-1.5c-2.1-0.9-4.2-1.9-6.3-2.9C20.9,62.8,19,62,17.2,61
	c-1.9-1.1-3.4-2.8-4.1-4.8c-0.2-0.6-0.7-1-1.3-1c-3.4-0.6-6.7-2.1-9.5-4.2c-0.5-0.3-0.8-1-0.5-1.6C2,48.9,2,48.4,2,47.8
	c-0.1-1-0.3-2.1-0.5-3.1c-0.6-2.1-0.5-4.3,0.3-6.3c0.1-0.2,0-0.5-0.1-0.7c-0.6-1.7-1-3.2-1.4-4.7c-0.6-4.3-0.1-8.7,1.3-12.9
	c0.1-0.3,0.3-0.6,0.5-0.8c2.6-2.5,5.5-4.8,8.6-6.7c0.7-0.3,1.1-1,1.1-1.7c0.1-1.8,1.1-3.1,2-4.6s1.4-2.7,2.2-4
	c0.2-0.4,0.6-0.7,1.1-0.8c1.2-0.1,2.5-0.1,3.7,0c2.2,0.1,4.3,0.9,6.1,2.2c0.8-0.6,1.5-1.2,2.3-1.7c3.4-1.8,7.2-2.5,11-1.9
	c0.4,0.1,0.7,0.4,0.9,0.7c1.8,3.3,4.4,6,7.6,7.8c1.6,0.9,3,2.2,4.1,3.7c0.5,1,1.2,1.9,1.9,2.8c1,0.6,2,1.2,3,1.6
	c3.3,1.8,5.8,4.8,7,8.4c0.2,0.7,0.2,1.4-0.1,2c-0.9,2-1.7,4-2.6,6c-0.3,0.4-0.2,1,0.2,1.3c2.1,2.1,3.4,4.8,3.7,7.7
	c0.2,0.9-0.3,1.8-1.2,2.2c-0.5,0.2-0.9,0.5-1.2,0.9c-1.4,1.5-2.7,3-4.1,4.4c-0.9,0.9-1.9,1.8-3,2.6C56,52.9,55,53,54.2,52.6
	c-0.7-0.3-1.6,0-1.9,0.7c-0.1,0.2-0.1,0.3-0.1,0.5c0,3.1-1.5,5.9-4.1,7.6c-2.3,1.6-4.8,3.2-7.1,4.8c-0.1,0.1-0.3,0.2-0.4,0.2
	L36.3,68.1z"/>
</svg>
