<svg id="Layer_1" data-name="Layer 1" xmlns="http://www.w3.org/2000/svg" viewBox="0 0 100 100"><defs><style>.cls-1{fill:none;stroke:#000;stroke-miterlimit:10;stroke-width:0.1px;}</style></defs><path class="cls-1" d="M89.64,83c-.74,0-1.47.08-2.21.13a1,1,0,0,0-.93.61,1.24,1.24,0,0,1-1.21.77c-2.14.11-4.28,0-6.42.12-3.5.15-7,.24-10.5.35-2.55.08-5.11.12-7.66.24s-4.81.07-7.2.38a14,14,0,0,1-1.59,0c-3.43,0-6.85.26-10.27.43-1.62.07-3.25.18-4.88.23-3.42.1-6.85.27-10.27.45-.94,0-1.89.06-2.84.1-2.06.1-4.12.12-6.19.15a15.41,15.41,0,0,1-2.15,0A1.34,1.34,0,0,1,14,85.88a10.69,10.69,0,0,1-.36-3.6c0-.17,0-.34,0-.51.07-1.4-.13-2.8-.09-4.2.16-4.79.07-9.58.1-14.38a20.73,20.73,0,0,0-.09-2.49,14,14,0,0,1,.07-2.15c0-2.11-.09-4.21-.14-6.31,0-1-.18-2-.19-3a11.41,11.41,0,0,0-.1-2.26c-.07-.35.19-.64.23-1a19.91,19.91,0,0,0,0-3.86c0-.19,0-.37,0-.56-.11-4.85-.1-9.7-.13-14.55a47.32,47.32,0,0,0-.06-4.76,14.77,14.77,0,0,1,.09-3.51c.07-.53-.19-1.09,0-1.66.15-.36.31-.54.69-.52a.62.62,0,0,0,.72-.55c.15-.52.57-1,.4-1.6-.06-.24.27-.56.66-.58a5.36,5.36,0,0,1,2.07.06,7.57,7.57,0,0,0,1.85.24l7.3.62c2.49.21,5,.47,7.47.64,2.17.14,4.33.4,6.5.55,2.47.18,4.94.49,7.41.63s5.08.46,7.62.67c3.24.27,6.48.65,9.72.88,1.84.13,3.66.31,5.5.39q3.29.16,6.56.51c1.41.15,2.84.18,4.25.37a.85.85,0,0,1,.83.88c.3,2.65.65,5.3,1,8,.2,1.77.33,3.54.55,5.31.12.9.24,1.79.34,2.69.21,2,.47,4.07.7,6.1.18,1.54.31,3.09.52,4.62a11.18,11.18,0,0,0,.38,2.29,14.31,14.31,0,0,1,.18,2.7c.33,2.42.57,4.85.85,7.28.22,1.9.43,3.8.67,5.69s.53,3.83.77,5.74c.39,3.16.76,6.32,1.14,9.47.09.73.18,1.46.29,2.19C90.26,82.75,90.08,82.93,89.64,83Z"/></svg>