<?xml version="1.0" encoding="utf-8"?>
<!-- Generator: Adobe Illustrator 25.0.0, SVG Export Plug-In . SVG Version: 6.00 Build 0)  -->
<svg version="1.1" id="Layer_2_1_" xmlns="http://www.w3.org/2000/svg" xmlns:xlink="http://www.w3.org/1999/xlink" x="0px" y="0px"
	 viewBox="0 0 65.1 95.1" style="enable-background:new 0 0 65.1 95.1;" xml:space="preserve">
<style type="text/css">
	.st0{stroke:#000000;stroke-width:0.1;stroke-miterlimit:10;}
</style>
<path class="st0" d="M32.7,13.9h-5.6c-0.8,0-1.5,0.1-2.2,0.4c-0.3,0.1-0.8,0.4-1.1,0.4s-0.4,0-0.7,0s-0.6,0.1-0.7,0.2
	s-0.5,0.1-0.7,0.2c-1.2,0.3-2.5,0.4-3.7,0.3c-0.5-0.1-1-0.3-1.5-0.5s-1-0.3-1.5-0.4c-0.4-0.1-0.8-0.4-1.2-0.5s-1-0.4-1.6-0.6
	c-0.9-0.3-1.7-0.7-2.4-1.4c-0.2-0.3-0.6-0.5-0.8-0.8c-0.6-0.6-0.6-1.3-1-2C7.8,8.8,7.2,8.5,7,8C6.8,7.3,6.7,6.7,6.6,6
	C6.3,4.7,6.2,3.3,6.3,2c0,0.9-0.7,1.7-0.7,2.6c0,0.5,0.2,0.8,0.2,1.3s0.2,1,0.4,1.4c0.2,0.5,0.3,1,0.4,1.5c-0.1,0.5-0.1,1,0,1.5
	c0.1,1.1,0.4,2.3,0.9,3.3C7.8,14.4,8.3,15,9,15.5c0.8,0.4,1.6,0.8,2.4,1c1.5,0.6,3.1,0.7,4.6,1.2c1.3,0.3,2.7,0.4,4.1,0.3
	c0.7,0,1.4-0.2,2.1-0.4c0.4-0.1,1-0.1,1.4-0.2s0.9-0.1,1.3-0.2c0.8,0,1.5,0,2.3,0s1.3,0.5,2.2,0.5c-0.5,0.4-1,0.7-1.6,1
	c-0.4,0.2-1,0.4-1.4,0.6s-0.9,0.7-1.5,1c-0.5,0.2-1,0.6-1.5,0.9c-0.4,0.4-0.9,0.8-1.3,1.1c-0.6,0.2-1.1,0.6-1.6,1
	c-0.4,0.4-0.7,0.9-1,1.4c-0.2,0.5-0.5,0.9-0.8,1.3c-0.2-0.3,0.4-0.5,0.6-0.7s0.1-0.2,0.2-0.4s0.3-0.2,0.4-0.2c0.5-0.6,1.1-1,1.8-1.2
	c0.5-0.1,1-0.3,1.5-0.4c0.4-0.1,0.9-0.3,1.3-0.5s0.6-0.6,0.9-0.9s1.2-0.5,1.2-0.9c0,0.3-0.5,0.5-0.7,0.7s-0.3,0.4-0.5,0.6
	c-0.3,0.2-0.5,0.4-0.7,0.7c-0.2,0.2-0.3,0.4-0.5,0.6c-0.5,0.5-1.1,0.8-1.5,1.3c-0.4,0.4-0.9,0.8-1.3,1.1c-0.4,0.2-0.7,0.5-1.1,0.8
	c-0.4,0.4-1.1,0.7-1.6,1.1s-1,1-1.5,1.5c-0.3,0.3-0.8,0.6-0.8,1c-0.2,0-0.4-0.1-0.4-0.3c0.8,0,1.6-0.1,2.4-0.3
	c0.8-0.1,1.6-0.4,2.4-0.8c0.5-0.3,1-0.7,1.5-1.1c0.2-0.2,0.6-0.4,0.8-0.6s0-0.2,0.3-0.4s0.5,0,0.5-0.3c0,0.5-0.2,0.5-0.5,0.9
	c-0.3,0.3-0.5,0.6-0.7,1c-0.3,0.6-0.6,1.1-0.9,1.8c-0.2,0.6-0.8,1.1-1.1,1.7c-0.2,0.4-0.4,0.7-0.7,1c-0.1,0.2-0.2,0.4-0.3,0.5
	c-0.1,0.1-0.3,0.2-0.5,0.4s-0.5,0.5-0.8,0.8s-0.5,0.5-0.8,0.8c-0.2,0.2-0.4,0.4-0.5,0.7c-0.2,0.3-0.3,0.6-0.3,0.9
	c-0.1,0.3-0.3,0.7-0.5,1s-0.2,0.8-0.4,1.2s-0.3,0.4-0.2,0.8c0,0.6-0.1,1.2-0.2,1.8c-0.1-0.5,0.3-0.3,0.6-0.7
	c0.3-0.4,0.8-0.7,1.3-0.9c0.5-0.1,1-0.2,1.5-0.4c0.3-0.2,0.7-0.5,1-0.7c0.7-0.5,1.4-1.1,2-1.7c0.3-0.4,0.8-0.6,1.3-0.7
	c0.4-0.1,1.1-0.3,0.9-0.7c0,0.3,0,0.7,0,1c-0.1,0.4-0.3,0.7-0.5,1c-0.4,0.8-0.7,1.5-1.2,2.2c-0.2,0.3-0.4,0.4-0.4,0.8s0,0.8,0,1.1
	c0,0.2,0,0.4,0,0.5c0,0.2,0.1,0.2,0.2,0.4c0.1,0.3,0.2,0.6,0.3,0.9c0.2,0.2,0.5,0.4,0.6,0.7c0.2,0.3,0.3,0.6,0.3,1c0,0.3,0,0.7,0,1
	c0,0.4-0.1,0.8-0.2,1.1c-0.2,0.7-0.1,1.4,0.2,2c0.2,0.3,0.4,0.7,0.6,1s0,0.8,0.2,1.2h0.2c0.1,0.5,0.1,1.1,0,1.6
	c-0.1,0.4-0.2,0.8-0.2,1.2c0,0.8-0.1,1.6-0.3,2.4c-0.5,1.4-2.1,2.6-3.3,3.8c-0.6,0.6-1.3,1.2-1.9,1.8c-0.2,0.2-0.3,0.6-0.5,0.8
	c-0.3,0.2-0.5,0.4-0.8,0.6c-0.7,0.5-1.5,0.8-2.4,0.9c-0.3,0-0.6,0-0.9,0.1c-0.2,0.1-0.5,0.2-0.7,0.2c-0.4,0.1-0.8,0.3-1.1,0.5
	c-0.4,0.2-0.9,0.3-1.3,0.6c-0.4,0.2-0.7,0.5-1,0.8s-0.6,0.5-0.9,0.8S8.9,68.7,8.5,69c-0.2-0.1-0.4-0.3-0.4-0.5
	c1.1-0.1,2.1-0.5,3-1.2c1-0.6,2.1-0.8,3.2-0.7c-0.3,0.4-0.6,0.7-1,1c-0.4,0.4-0.7,0.9-1.1,1.2s-0.7,0.6-1,0.9s-0.7,0.6-1.1,0.8
	s-0.8,0.6-1.3,0.9C8.1,71.7,8,71.9,7.9,72S7.3,72.2,7,72.4s-0.9,0.5-1.2,0.7c-0.5,0.3-1.1,0.5-1.7,0.4c0.5,0,1,0,1.4-0.2
	c0.5-0.2,1.1-0.5,1.6-0.8c0.4-0.2,0.7-0.4,1.1-0.7C8.5,71.5,8.6,71.2,9,71c0.8-0.5,1.9-0.8,2.7-1.3c0.4-0.3,0.8-0.5,1.2-0.8
	s0.8-0.3,0.7-0.9c0,0.3,0,0.6,0,0.9c-0.2,0.6-0.5,1.1-0.9,1.6c-0.4,0.8-1,1.5-1.5,2.2c-0.5,0.6-1.1,1.1-1.7,1.6
	c-0.3,0.2-0.5,0.4-0.7,0.6C8.4,75,8,75.6,7.5,75.1c0-0.2,0.3-0.4,0.5-0.5c0.3-0.2,0.5-0.5,0.7-0.7c0.4-0.4,0.8-0.7,1.2-1
	c0.3-0.2,0.6-0.4,0.8-0.7c0.4-0.4,0.9-0.7,1.4-1c0.4-0.3,0.7-0.7,1.1-1c0.5-0.3,0.9-0.6,1.3-1c0.3-0.3,0.5-0.7,0.8-1
	s0.7-0.6,0.7-1.1c0,0.6,0,1.3,0,1.9c-0.3,1-0.6,2-1,3c-0.2,0.7-0.5,1.4-0.9,2.1c-0.2,0.3-1,1.8-1.4,1.7c0-1,0.8-1.8,1.5-2.7
	c0.3-0.5,0.4-1,0.7-1.5s0.3-0.7,0.5-1.1s0.4-0.7,0.6-1c0.2-0.3,0.3-0.7,0.5-1s0.4-0.5,0.5-0.8s0.1-0.4,0.2-0.6s0.3-0.3,0.4-0.5
	s0-0.3,0.1-0.5s0.3-0.2,0.4-0.4s0.3-0.4,0.4-0.6c0.2-0.2,0.4-0.3,0.6-0.4c0.3-0.2,0.5-0.4,0.7-0.6c0.8-0.7,1.8-1.3,2.7-2
	c0.6-0.4,1-0.9,1.4-1.5c0.1-0.2,0.1-0.3,0.2-0.4c0.1-0.2,0.2-0.3,0.3-0.4c0.3-0.3,0.7-0.6,1.1-0.8c0.7-0.5,1.5-1,2.1-1.6
	c0.5-0.4,1-0.7,1.6-1c0.4-0.2,0.7-0.5,1.1-0.7l1-0.5c0.4-0.2,0.8-0.2,1.2-0.3c0.1,0.5,0.1,0.9,0,1.4c-0.2,0.5-0.5,1-0.7,1.5
	c-0.4,0.8-0.8,1.6-1.2,2.3c-0.2,0.4-0.4,0.7-0.6,1.1c-0.1,0.2-0.2,0.3-0.4,0.5c-0.2,0.2-0.4,0.4-0.6,0.6c-0.7,0.7-1.2,1.4-1.9,2.1
	c-0.3,0.3-0.6,0.6-0.8,0.9c-0.3,0.4-0.5,0.9-0.8,1.3s-0.5,0.8-0.7,1.2c-0.2,0.3-0.5,0.6-0.8,0.8c-0.3,0.4-0.8,0.7-1.1,1
	c-0.3,0.4-0.5,0.7-0.8,1.2c-0.2,0.4-0.5,0.8-0.7,1.2c-0.1,0.4-0.2,0.8-0.4,1.2c-0.2,0.2-0.3,0.4-0.3,0.7c0,0.2-0.1,0.5-0.2,0.7
	c-0.1,0.5-0.1,1,0,1.4v2.1c-0.1,0.7,0,1.4,0.2,2c1.2,2.2,0,4.7,0,7c0.1,0.5,0.1,1,0,1.5c-0.1,0.2-0.2,0.2-0.3,0.5c0,0.2,0,0.5,0,0.7
	c0,0.9,0.2,2.4-1.5,2.4c-0.6,0-1.1,0-1.7,0c-0.5-0.1-1-0.2-1.6-0.3c-0.6-0.1-1.1-0.2-1.7-0.2c-0.6,0.1-1.2,0.1-1.8,0
	c-0.4-0.1-0.7-0.5-1-0.7c-0.5-0.2-1-0.3-1.6-0.3c-0.4,0-0.9-0.1-1.2-0.3c-0.6-0.2-1.2-0.2-1.9-0.4s-1.1-0.1-1.7-0.2
	s-1.3-0.1-1.9-0.1h-1c-0.3,0-0.6,0-0.8,0.2C0.8,90,0.5,90,0.3,90.1c-0.2,0-0.6,0.2-0.6,0.3c1,0.1,2,0.1,3-0.1c0.9-0.1,1.8,0,2.7,0.2
	c0.3,0.1,0.6,0.2,1,0.3s0.8,0.2,1.3,0.3c0.4,0.1,0.8,0.3,1.1,0.5c0.2,0.2,0.4,0.5,0.5,0.8c-0.9,0-1.8-0.2-2.5-0.7
	c-0.6-0.4-1.4-0.6-2.1-0.5c-0.4,0-0.9,0.1-1.3,0.2c-0.3,0.1-0.7,0.2-1,0.3c-0.4,0.1-2.5-0.2-1.8,0.5c0.5,0.5,1.7,0,2.2,0
	c0.8-0.1,1.7-0.1,2.5,0c0.2,0,0.2,0.2,0.5,0.2s0.4,0,0.6,0s0.2,0.1,0.4,0.2c0.2,0,0.5,0,0.7,0c0.5,0,1,0,1.5,0
	c0.4,0,0.3-0.1,0.5,0.2s0,0.4,0,0.5c-1.4,0.3-2.9,0-4.3,0.2c-0.5,0-0.9,0.2-1.3,0.4c-0.3,0.2-0.7,0.5-0.7,0.8
	c0.3-0.2,0.6-0.4,0.9-0.7c0.4-0.3,0.8-0.5,1.2-0.5c0.9-0.2,1.8-0.3,2.8-0.4c0.4-0.1,0.9,0,1.3,0s0.8-0.2,1.2-0.2c0.5,0,1,0,1.4,0
	s0.7,0.2,1.2,0.2c0.9,0.1,1.8,0.2,2.7,0.3s1.5,0.1,2.4,0.2s1.5,0.2,2.3,0.2h1.7c0.6,0,1.1-0.1,1.7-0.2c0.5,0,1-0.1,1.4-0.3
	c0.7-0.3,1.2-0.8,1.7-1.4c0.2-0.3,0.3-0.6,0.2-1c-0.1-0.3-0.8-0.6-1.2-0.7c-0.4-0.1-0.8-0.2-1.2-0.2c-0.4,0-0.8,0.1-1-0.2
	c-0.1-0.1,0-0.4,0-0.5c0-0.2-0.1-0.4-0.2-0.6c-0.1-0.5-0.1-1-0.1-1.5c-0.1-0.9,0-1.7,0.2-2.6c0.4-1.1,0.7-2.3,0.8-3.4
	c0-0.3,0-0.7,0-1c-0.1-0.4-0.3-0.7-0.4-1.1s-0.2-0.8-0.3-1.2c-0.1-0.4-0.4-0.7-0.4-1.2c0-0.6,0-1.2,0-1.9s-0.2-0.9,0.5-1.1
	c0.1,0,0.3,0,0.4,0c0.2-0.1,0.4-0.2,0.5-0.3c0.4-0.2,0.8-0.5,1.2-0.7c0.5-0.4,0.6-0.7,1-1.1s1.1-0.6,1.5-1c0.7-0.9,1.5-1.8,2.3-2.6
	c0.2-0.1,0.4-0.3,0.7-0.4c0.3-0.3,0.5-0.5,0.9-0.7c0.6-0.3,1.2-0.7,1.8-1c0.3-0.2,0.5-0.4,0.8-0.7c0.4-0.3,0.8-0.6,1.2-0.9
	c0.3-0.4,0.7-0.8,1.2-1.2c0.3-0.1,0.6-0.4,0.8-0.7c0.3-0.5,0.8-0.9,1.2-1.2c0.3-0.2,0.7-0.8,1.2-0.9c0,0.6-0.1,1.1-0.5,1.6
	c-0.3,0.4-0.6,0.9-0.8,1.4c-0.1,0.4-0.2,0.8-0.2,1.2c0,0.5-0.2,0.9-0.2,1.4c0,1.6-1,3-0.7,4.7c0.1,0.4,0.4,0.7,0.5,1
	c0.1,0.4,0.2,0.8,0.2,1.2c0,0.4,0,0.8,0,1.2c0,0.7-0.4,1.1-0.7,1.7C38,76.4,37.6,77,37,77.4c-0.3,0.2-0.6,0.4-0.9,0.6
	c-0.3,0.2-0.6,0.5-0.8,0.8c-0.1,0.2-0.2,0.4-0.2,0.6c-0.2,0.3-0.5,0.6-0.6,1c-0.1,0.3-0.2,0.7-0.3,1c0,0.3,0.1,0.7,0,0.9
	S34,82.7,34,83c0,0.2,0,0.4,0,0.7c-0.1,0.2-0.2,0.3-0.2,0.6c0,0.2,0,0.5,0,0.7c-0.1,0.4-0.2,0.8-0.2,1.3c0,0.3-0.1,0.7-0.2,1
	c0-0.4-0.1-0.7,0.2-1s0.6-0.5,0.7,0c0.1,0.7,0.1,1.3,0,2c-0.1-0.6,1-2.4,1.8-2.4c0.6,0,0.3,1.3,0.3,1.7c-0.1-0.4,0-0.8,0.2-1.1
	c0,0.2-0.3,2.7,0.7,2.3c0.2-0.4,0.3-0.9,0.3-1.3c0,0.6,0.3,2,1.5,1.9c0.4-0.4,0.2-1.1,0.2-1.5c0,0.3,0,1.9,0.7,1.7
	c0.1-0.6,0.1-1.1,0-1.7c-0.2,0.7,1.1,1.4,1.9,1.5s0.7-0.2,0.7-0.6c0,0.2-0.2,0.7,0.2,0.8c0.2-0.2,0-0.6,0-0.8
	c0.1,0.2,0.3,0.6,0.7,0.6c0.1-0.4-0.1-0.8,0.1-1.2c0.4,0.3,0.5,0.7,1.2,0.8s0.3-0.3,0.5-0.7c0.4,0.1,0.5,0.5,1,0.6
	c0.7,0.1,0.5-0.2,0.7-0.6c0.6,0.1,0.9,0.6,1.4,0.1c0.1-0.1,0.2-0.6,0.3-0.6c0.5-0.2,0.4,0.3,0.5,0.5c0.3,0.1,0.6-0.1,0.4-0.3
	s-0.6-0.2-0.8-0.2c-0.9-0.3-1.5-0.9-2.3-1.2c-0.5-0.2-1-0.5-1.3-1c-0.2-0.4-0.2-0.5-0.7-0.7c-0.2-0.1-0.4-0.2-0.5-0.3
	c-0.1-0.2-0.2-0.5-0.2-0.7c-0.1-0.2-0.3-0.4-0.4-0.6c-0.3-0.6-0.4-1.3-0.6-2c-0.1-0.2-0.2-0.4-0.3-0.6c-0.2-0.3-0.1-0.6-0.2-0.9
	c0-0.6-0.5-1.1-0.5-1.7s-0.2-0.9-0.2-1.4c0-0.4-0.1-0.8-0.4-1.2c-0.6-1.1-1-2.3-1.1-3.6v-1.3c0.1-0.6,0.3-1.1,0.6-1.6
	s0.6-1.1,0.8-1.7c0.1-0.5,0.4-1,0.5-1.5s0.1-1,0-1.5c0-0.3,0-0.5,0.1-0.8s0.1-0.6,0.2-0.9s0.3-0.6,0.4-0.9c0.1-0.3,0.2-0.6,0.3-1
	c0.3-0.6,0.9-0.9,1.5-0.9c0,0.9-1.2,1.6-1.2,2.5c0.1,0.5,0.2,1,0.4,1.5c0.1,0.4,0.1,0.8,0,1.2c0,0.4,0,0.8,0,1.2
	c0.1,0.4,0.1,0.8,0.2,1.2c0,0.3,0,0.7,0.2,1s0.4,0.6,0.5,0.9c0.3,0.7,0.7,1.3,1.2,1.8c0.3,0.3,0.4,0.7,0.5,1.1c0,0.2-0.1,0.4,0,0.6
	s0.2,0.3,0.2,0.4c0,0.2,0,0.4,0,0.6s0.1,0.4,0.2,0.5c0.2,0.4,0.4,0.8,0.6,1.2c0.2,0.5,0.3,1,0.4,1.6c0.1,0.2,0.2,0.4,0.2,0.6
	c0.1,0.2,0.2,0.4,0.2,0.5c0.1,0.8,0.1,1.6,0,2.3c0.1,0.4,0.2,0.8,0.5,1.1c0.1,0.3,0.4,0.7,0.7,0.9c0.3,0.3,0.6,0.7,0.8,1.1
	c0.6,1.1,1.2,2.3,1.6,3.6c0.3,0.8,0.6,1.6,0.9,2.4c0.1,0.2,0.4,1.2,0.1,1.4c-0.5,0.1-1.1,0.1-1.6,0H45c-1.2-0.1-2.3,0-3.5,0.1
	C40,91.3,39,90.6,38,90c-0.4-0.2-0.8-0.4-1.2-0.5c-0.3-0.1-0.5,0-0.8-0.1s-0.5-0.2-0.8-0.3l-1-0.2c-0.2,0-0.5-0.2-0.7-0.2
	s-0.5,0-0.8-0.1s-1.4-0.5-1.6-0.2s1.5,0.5,1.8,0.6s0.2,0.2,0.3,0.2c0.2,0.1,0.4,0.2,0.7,0.2c0.3,0.1,0.7,0.2,1,0.4
	c0.5,0.3,0.9,0.7,1.4,1.1c0.3,0.2,0.6,0.5,0.9,0.9c-0.8,0.2-1.7-0.4-2.4-0.6c-0.9-0.4-1.9-0.6-2.9-0.6c-0.4,0-0.9,0.1-1.2,0.4
	c-0.2,0.2-1.1,0.3-0.6,0.6c0.4,0.1,0.9,0.1,1.3,0c0.6,0.1,1.1,0.2,1.7,0.3c0.2,0,0.5,0,0.7,0c0.3,0,0.5,0.1,0.7,0.1
	c0.4,0,0.8,0.2,1.2,0.4c-1.6,0-3-0.7-4.6-0.7c-0.6-0.1-1.2-0.1-1.8,0c-0.2,0.6,0.1,1.1,0.3,1.7c0.3-0.1,0.6-0.3,0.9-0.4
	c0.7-0.1,1.4-0.2,2.1-0.2c1-0.1,1.9-0.1,2.9,0c0.3-0.1,0.7-0.1,1,0c0.1,0.1,0.1,0.2,0.2,0.3c-1.3-0.1-2.7,0.1-4,0.4
	c-0.5,0.2-0.9,0.2-1,0.6S31.6,95,32.1,95c0.5-0.1,0.9-0.3,1.3-0.6c0.4-0.2,0.8-0.3,1.2-0.4c1.2-0.3,2.5-0.6,3.7-1
	c1.2-0.5,2.4-0.9,3.7-1.1c1.1-0.1,2.2-0.2,3.4-0.2c0.3,0,0.7,0,1,0c0.5,0.1,0.9,0.1,1.4,0.2c1.2,0.2,2.5,0,3.7,0.3
	c0.4,0.1,0.7,0.2,1.1,0.2c0.4,0,0.7,0,1.1,0c0.8,0.1,1.6,0.2,2.4,0.1c0.6,0.1,1.1-0.1,1.6-0.4c0.7-0.5,1.4-0.9,1.4-1.7
	s0.2-1.4-0.8-2c-0.2-0.2-0.2-0.2-0.4-0.3c-0.1,0-0.5,0-0.7,0C56.4,88,55.7,88,55,88s-2,0.2-2.2-0.4c-0.1-0.4,0.2-0.4,0.4-0.6
	c0.4-0.4,0.6-0.8,0.8-1.3c0.3-0.8,0.5-1.7,0.5-2.6c0.1-1,0-2-0.2-2.9c-0.1-0.5-0.3-1.1-0.5-1.6c-0.3-0.6-0.9-0.9-1.5-1.4
	c-0.4-0.4-0.7-0.8-1-1.2c-0.2-0.2-0.3-0.3-0.5-0.5c-0.4-0.3-0.3-0.7-0.4-1.1s0.3-0.5,0.2-0.9s-0.2-0.7-0.4-1c-0.3-0.6-0.5-1.3-0.6-2
	c-0.1-1.3-0.1-2.6,0-3.9c0.2-0.9,0.3-1.6,0.6-2.5c0.1-0.4,0.1-0.7,0.1-1.1c0-0.4,0.3-0.7,0.2-1c0-0.2,0-0.4,0-0.5s0.2-0.2,0.2-0.3
	c0-0.3,0-0.6,0-0.9c0-0.2,0-0.4,0-0.5c0-0.2-0.2-0.2-0.3-0.3c-0.1-0.3,0.1-0.7,0-1h-0.2c-0.1-0.9,0-1.7,0.2-2.6
	c0.1-0.3,0.1-0.7,0.2-1c0.1-0.2,0-0.3,0-0.5s0.2-0.4,0.3-0.6c0-0.5,0-0.9,0-1.4c0-0.4,0.2-0.7,0.2-1.1s0-0.8,0-1.1s-0.2-0.6-0.2-1
	c-0.1-1.5-0.1-2.9,0-4.4v-2.4c0.1-0.7,0.1-1.5,0-2.2c-0.1-0.4-0.5-0.8-0.5-1.2s0-0.8,0-1.2s0-0.9-0.1-1.3c-0.1-0.2-0.1-0.4-0.2-0.6
	s-0.3-0.3-0.4-0.5c0.2,0.2,0.4,0.4,0.7,0.5c0.2,0.2,0.5,0.3,0.7,0.5c0.6,0.4,1.3,0.7,1.9,1c1.2,0.6,2.3,1.4,3.2,2.3
	c0.4,0.4,0.5,0.9,0.8,1.4s0.6,0.8,1,1.1s1,0.8,1.4,1.2c0.3,0.4,0.6,0.8,0.7,1.2c0.2,1,0.3,1.9,0.3,2.9c0.1,1.4,0,2.8-0.3,4.1
	c-0.3,0.7-0.5,1.4-0.7,2.1c0,0.5,0,1,0,1.5c0,0.9,0.3,2.1-0.2,2.9l-1.2,2c-0.3,0.4-0.5,0.8-0.8,1.2c-0.1,0.2-0.3,0.5-0.5,0.7
	c-0.3,0.5-0.5,1-0.5,1.6c0,0.8-0.2,1.5-0.2,2.4c-0.1-0.3-0.1-0.5,0-0.8s0.5-0.3,0.6-0.6s0.1-0.7,0.4-1s0.6-0.5,0.8-0.8
	c0.3-0.4,0.6-0.8,0.9-1.3c0.3-0.4,0.6-0.9,0.8-1.4c0.3-0.5,0.6-0.9,1-1.4c0,0.6-0.1,1.3-0.3,1.9c-0.2,0.5-0.5,0.9-0.9,1.3
	c-0.5,0.6-0.8,1.4-1.4,2c-0.3,0.4-0.5,0.8-0.6,1.2C57,65.6,57.2,66,57,66.5c-0.3,1.1-0.3,2.3-0.2,3.4c-0.1-0.5,0.4-1.2,0.7-1.7
	s0.5-1.3,1-1.7s0.4-0.3,0.4-0.7s0.4-1,0.5-1.6c0-0.3,0-0.5,0-0.8c0.1-0.3,0.5-0.8,0.4-1.1c-0.1,0.6-0.1,1.2,0,1.9
	c0.3,0.6,0.6,1.1,1,1.7c0.4,0.7,0.6,1.4,0.8,2.1c0.1,0.3-0.2,1.4,0.2,1.5c0.3-1,0.4-2.1,0.3-3.1c0-0.5-0.1-1-0.3-1.4
	s-0.2-0.9-0.2-1.4v-1.4c0-0.6,0-1.1,0-1.7c0.1-0.4,0.2-0.7,0.4-1.1c0.3-1,0.4-2,0.3-3c-0.1,1-0.1,2,0,3c0.1,0.3,0.2,0.7,0.3,1
	c0,0.4,0,0.7,0,1.1c0,0.4,0.1,0.8,0.3,1.1c0.2,0.4,0.4,0.9,0.6,1.3c0.2,0.4,0.4,1,0.6,1.4c0.1,0.3,0.2,0.7,0.2,1v-2.8
	c0-0.4,0-0.8,0-1.2c-0.1-0.3-0.2-0.5-0.2-0.9s0-0.8,0-1.1c0-0.2-0.2-0.4-0.3-0.6s0.1-0.5,0-0.7s-0.2-0.4-0.3-0.5
	c-0.2-0.3-0.2-0.6-0.4-0.9c-0.3-0.4-0.5-0.8-0.7-1.2c-0.9-1.5-0.5-3.4-0.5-5v-8.5c0-1.1,0.2-2.2,0.2-3.3c0.1-1,0.1-2.1-0.1-3.1
	c-0.1-0.4-0.2-0.7-0.5-1s-0.7-0.5-1-0.8c-0.5-0.5-0.9-1.2-1.4-1.8c-0.2-0.3-0.5-0.6-0.7-0.9c-0.3-0.2-0.6-0.5-0.8-0.7
	c-0.6-0.8-1.3-1.4-1.9-2.2c-0.3-0.3-0.6-0.7-0.8-1.1c-0.1-0.4-0.3-0.8-0.6-1.1c-0.2-0.2-0.5-0.3-0.4-0.6c0.1-0.3,0.1-0.5,0-0.8
	s-0.1-0.5-0.3-0.8c-0.1-0.2,0.1-0.5,0-0.8s-0.2-0.4-0.2-0.6c-0.2-0.5-0.3-0.9-0.5-1.4s-0.7-0.7-0.8-1.1s-0.6-1-0.8-1.4
	c-0.2-0.5-0.4-0.9-0.6-1.4c-0.2-0.2-0.4-0.4-0.6-0.6s-0.1-0.2-0.2-0.3s-0.3,0-0.3-0.1c-0.3-0.2-0.7-0.7-1.2-0.8
	c0.2-1,0.6-1.9,1.3-2.6c0.3-0.4,0.5-0.8,0.7-1.2c0.1-0.4,0.3-0.7,0.5-1c0.2-0.4,0.3-0.8,0.4-1.2c0.1-0.2,0-0.4,0.1-0.7
	c0.1-0.2,0.2-0.3,0.2-0.5c0-0.8,0-1.7,0-2.5c0-0.4,0.4-0.9,0.2-1.3c-0.2-0.3-0.4-0.6-0.7-0.8c-0.5-0.4-0.9-0.7-1.4-1
	c-0.1-0.1-0.3-0.2-0.4-0.2C49.1,3,49.1,2.9,49,2.8c-0.3-0.3-0.6-0.6-1-0.9c-0.5-0.3-1-0.1-1.4-0.4S46.1,1,45.8,0.7
	C45.4,0.4,45,0.2,44.5,0l-0.1,0.2c-0.1,0.3,0.4,0.6,0.5,0.9c0.3,0.4,0.6,0.7,1,1c0.7,0.5,1.6,0.8,2.3,1.3C48.5,3.5,48.7,3.7,49,4
	c0.1,0.3,0.2,0.6,0.3,0.9c0.2,0.4,0.3,0.8,0.4,1.2c0.1,0.4,0.2,0.6,0.2,0.9c0.1,0.8,0,1.6-0.3,2.3c-0.3,0.6-0.7,1.2-1.1,1.8
	c-0.2,0.3-0.5,0.5-0.8,0.7c-0.3,0.3-0.6,0.5-0.9,0.7c-0.4,0.2-0.9,0.5-1.2,0.8s-0.5,0.6-1.2,0.6s1.3-2.1,0.6-2.1s-1.2-0.1-1.9-0.2
	c-0.3,0-0.6-0.1-0.8-0.2c-0.3-0.1-0.7,0-1,0c-0.3-0.1-0.5-0.1-0.8-0.2c-0.4-0.1-0.9-0.1-1.3,0c-0.6,0.1-1.2,0.2-1.8,0.5
	c-0.5,0.2-0.7,0.6-1.1,0.9c-0.3,0.1-0.6,0.2-0.9,0.3c-0.3,0-0.6,0.1-0.9,0.1C34.2,13.2,32.7,14.4,32.7,13.9z"/>
</svg>
