<?xml version="1.0" encoding="utf-8"?>
<!-- Generator: Adobe Illustrator 24.3.0, SVG Export Plug-In . SVG Version: 6.00 Build 0)  -->
<svg version="1.1" id="Layer_1" xmlns="http://www.w3.org/2000/svg" xmlns:xlink="http://www.w3.org/1999/xlink" x="0px" y="0px"
	 viewBox="0 0 100 100" style="enable-background:new 0 0 100 100;" xml:space="preserve">
<style type="text/css">
	.st0{fill:none;stroke:#000000;stroke-width:0.1;stroke-miterlimit:10;}
</style>
<g id="_x37_58ky4_1_">
	<g>
		<path class="st0" d="M75.75,48.36c3.01,7.21,3.28,14.47,0.46,21.74c-2.08,5.37-5.53,9.71-10.31,12.92
			c-10.01,6.7-22.49,6.54-32.12-0.4c-5.36-3.86-8.95-9.01-10.68-15.4c-1.71-6.33-1.23-12.55,1.28-18.52
			c-1.9,0.03-3.8,0.22-5.67,0.07C10.12,48.1,4.13,40.32,5.59,31.84c1.64-9.55,9.16-16.79,18.77-18.07c6.33-0.84,12.34,2,15.3,7.37
			c1.92,3.49,2.22,7.25,1.34,11.11c-0.08,0.33-0.16,0.67-0.27,1.14c6.36-2.1,12.62-2.09,18.96,0.06c-0.18-0.87-0.36-1.66-0.5-2.47
			c-1.12-6.42,1.5-12.35,6.99-15.48c3.93-2.24,8.16-2.49,12.5-1.38c8.39,2.15,14.91,9.32,16.16,17.76
			c1.42,9.56-6.21,17.67-15.85,16.85C77.93,48.63,76.88,48.49,75.75,48.36z"/>
	</g>
</g>
</svg>
