<svg id="Layer_1" data-name="Layer 1" xmlns="http://www.w3.org/2000/svg" viewBox="0 0 90.59 63.69"><defs><style>.cls-1{fill:none;stroke:#000;stroke-miterlimit:10;stroke-width:0.1px;}</style></defs><path class="cls-1" d="M58.77,71.3a53.2,53.2,0,0,1-1.3,5.19c-.39,1.12-.93,2.55-2.59,2.26-5.49-.92-11-1.7-16.43-3C35,75,34.37,73.49,35.18,70c.46-2,1.08-3.93,1.73-6.22L6,56.82C4.08,39.66,11.84,23,25.89,15.21c.19.14.42.27.62.43L90.19,65.06c1,.75,1.69,1.59,3.25.76s2.9,0,2.72,1.8a16.08,16.08,0,0,1-4.28,9.62c-1.3,1.38-2.61,1.14-3.19-.63a2.61,2.61,0,0,0-2.59-2,26.56,26.56,0,0,1-2.92-.61L59.5,68.79C59.24,69.69,59,70.49,58.77,71.3ZM41.49,64.74c-.2.75-.36,1.43-.56,2.1-1.21,4.13-.93,4.69,3.3,5.63,2.32.52,4.69.85,7,1.26A1.79,1.79,0,0,0,53.61,72c.22-1.36.52-2.71.84-4.37Z" transform="translate(-5.64 -15.15)"/></svg>