<svg id="Layer_1" data-name="Layer 1" xmlns="http://www.w3.org/2000/svg" viewBox="0 0 100 100"><defs><style>.cls-1{fill:none;stroke:#000;stroke-miterlimit:10;stroke-width:0.1px;}</style></defs><path class="cls-1" d="M91,2.64C83.67,7,47.37,24.76,46.75,26.5c10.08-4.12,32.81-10.75,41.5-15,1.39,1.46,5.88,13.27,7.14,14.84-13.93,3.94-33.48-1.13-47.48,3.13.33,1.53,8.47,1.62,10.77,2.38,3.78,1.24,13.82,12.64,15.85,14.84,1.9,2,14.84,15.74,15.67,18.41,1,3.33-18,32.39-19.4,33.28-1.31.23-28.36-10.2-30.19-13.16-2.17-3.5-11.91-31.41-12.25-33a35.63,35.63,0,0,0-1.29-5.8C26.49,44.58,36.82,34,34.59,34c-7,3.9-22.16,20.2-24.3,23C7.77,55.35,6,38.75,5.63,37.78c5.44-1,11.06-3.19,16.94-4.4C25.08,32.86,33,30,35.09,29.81,35.87,28.31,3.45,3.54,3.45,3.54Z"/></svg>