<?xml version="1.0" encoding="utf-8"?>
<!-- Generator: Adobe Illustrator 25.1.0, SVG Export Plug-In . SVG Version: 6.00 Build 0)  -->
<svg version="1.1" id="Layer_1" xmlns="http://www.w3.org/2000/svg" xmlns:xlink="http://www.w3.org/1999/xlink" x="0px" y="0px"
	 viewBox="0 0 425.2 425.2" style="enable-background:new 0 0 425.2 425.2;" xml:space="preserve">
<style type="text/css">
	.st0{fill:none;stroke:#000000;stroke-width:0.1;stroke-miterlimit:10;}
	.st1{fill:#FFFFFF;stroke:#000000;stroke-width:0.1;stroke-miterlimit:10;}
</style>
<path class="st0" d="M72.34,95.86H38.6v200.67h162.72c-1.67,2.46-3.47,6.02-3.25,10.16c1.02,18.62,42.09,33.68,75.41,34.93
	c26.47,0.99,68.64-5.96,74.38-27.87c1.63-6.21-0.01-12.32-2.22-17.21c13.65,0,27.3,0,40.94,0V95.86l-166.89-0.52
	c1.62-3.59,2.89-8.16,1.98-13.08c-3.8-20.62-42.87-30.08-67.2-31.49c-31.7-1.83-76.69,7.82-82.66,31.67
	C70.52,87.7,71.37,92.53,72.34,95.86z"/>
<ellipse class="st1" cx="242.75" cy="150.67" rx="75.41" ry="34.93"/>
</svg>
