<?xml version="1.0" encoding="utf-8"?>
<!-- Generator: Adobe Illustrator 25.0.0, SVG Export Plug-In . SVG Version: 6.00 Build 0)  -->
<svg version="1.1" id="Layer_1" xmlns="http://www.w3.org/2000/svg" xmlns:xlink="http://www.w3.org/1999/xlink" x="0px" y="0px"
	 viewBox="0 0 100 100" style="enable-background:new 0 0 100 100;" xml:space="preserve">
<style type="text/css">
	.st0{fill:none;stroke:#000000;stroke-width:0.1;stroke-miterlimit:10;}
</style>
<polygon class="st0" points="96.4,42.3 96.4,40 94.7,40 94.7,38.2 94.1,38.2 93.9,36.3 92.1,36.3 92.1,32.1 89.8,32.1 89.8,29.9 
	87.9,29.7 87.9,27.9 85.6,27.9 85.6,25.6 83.8,25.5 83.6,23.6 81.4,23.6 81.3,21.3 77.2,21.3 77.1,19.5 75.3,19.5 73.3,17.2 
	71,17.2 71,15.2 64.6,15.2 64.5,12.9 58.5,12.9 58.3,11.2 54.3,11.2 54.2,13 37.3,13 37.3,15.4 31.2,15.4 31.2,17.2 24.7,17.2 
	24.7,19.5 22.9,19.6 22.8,21.4 18.9,21.4 18.2,23.4 16.2,23.9 16.2,25.7 12,25.7 12,27.9 10.2,28 10.2,32.5 7.9,32.5 7.7,34.1 
	5.9,34.1 5.9,38.3 3.6,38.3 3.6,44.7 1.8,44.9 1.8,63.5 3.7,63.5 3.7,65.2 6.2,65.2 6.2,69.7 7.9,69.7 7.9,72 10.2,72 10.2,73.7 
	16.3,73.7 16.3,72.9 16.3,71.9 22.4,71.9 22.4,69.6 25.8,69.6 27,70.9 27.1,73.2 27.3,73.9 29,73.9 29,76.2 31.3,76.2 31.3,78.1 
	37.4,78.1 37.4,80.3 45.8,80.3 45.8,78 49.9,78 50.1,76.2 52.3,76.2 52.5,78.1 54.2,78.1 54.2,80.4 56.6,80.4 56.6,82.2 58.5,82.4 
	58.5,84.6 60.8,84.6 60.8,88.8 62.6,88.9 62.7,90.6 66.8,90.6 67,88.7 68.8,88.7 68.8,82.2 79.5,82.2 79.6,80.4 82.4,80.4 
	83.7,78.9 83.7,78.1 85.5,78 85.7,76.1 87.9,76.1 87.9,75.1 88.5,73.8 89.9,73.8 89.9,69.6 92.2,69.6 92.2,59.4 94.1,59.3 94.1,57 
	95,57 95,54.8 98.2,54.8 98.2,42.5 "/>
</svg>
