<?xml version="1.0" encoding="utf-8"?>
<!-- Generator: Adobe Illustrator 24.2.3, SVG Export Plug-In . SVG Version: 6.00 Build 0)  -->
<svg version="1.1" id="Layer_1" xmlns="http://www.w3.org/2000/svg" xmlns:xlink="http://www.w3.org/1999/xlink" x="0px" y="0px"
	 viewBox="0 0 100 100" style="enable-background:new 0 0 100 100;" xml:space="preserve">
<style type="text/css">
	.st0{fill:none;stroke:#000000;stroke-width:0.1;stroke-miterlimit:10;}
</style>
<path class="st0" d="M23.94,43.92c-1.65,2.59-3.32,5.24-4.02,8.23c3.92-0.12,6.92-3.45,9.1-6.71c2.18-3.26,4.27-6.93,7.87-8.5
	c-1.21,1.89-2.42,3.78-3.62,5.66c-1.76,2.75-3.54,5.54-4.6,8.62c-0.92,2.67-1.28,5.5-1.5,8.32c-0.28,3.56-0.35,7.22,0.71,10.64
	c1.06,3.42,3.41,6.59,6.75,7.86c1.85,0.7,3.86,0.78,5.84,0.89c4.5,0.23,9.17,0.67,13.05,2.95c2.83,1.66,5.06,4.21,7.85,5.93
	c2.8,1.72,6.67,2.46,9.21,0.38c4.57,4.96,11.58,7.55,18.28,6.74c-1.37-7.09-8.13-12.74-15.35-12.84c3.35-5.95,5.19-12.74,5.32-19.57
	c-5.2,4.02-9.56,9.12-12.73,14.89c-2.83-0.48-5.5-1.82-7.57-3.82c-2.51-2.42-4.07-5.68-6.52-8.15c-3.44-3.47-8.59-5.38-10.8-9.74
	c-2.17-4.26-0.77-9.46,1.35-13.74c1.05,4.27,2.67,8.39,4.79,12.24c1.65,2.99,4,6.05,7.37,6.57c0.35-4.23,0.69-8.6-0.65-12.62
	c-0.87-2.63-2.42-4.97-3.69-7.43c-2.39-4.64-3.8-9.77-4.12-14.98c3.05-0.03,6.47-0.22,8.52-2.48c1.86-2.05,1.94-5.14,1.5-7.88
	c-0.13-0.78-0.3-1.57-0.75-2.22c-0.65-0.94-1.77-1.4-2.84-1.82c-3.22-1.27-7.15-2.46-9.88-0.34c-1.63,1.27-2.32,3.39-2.77,5.41
	c-0.55,2.47-0.97,5.08-2.13,7.36c-1.01,1.98-2.65,2.98-4.04,4.6C30,32.86,27.14,38.89,23.94,43.92z"/>
</svg>
